<svg xmlns="http://www.w3.org/2000/svg" width="420" height="420" viewBox="0 0 420 420">
    <g fill="none" fill-rule="evenodd">
        <path fill="#01379E" fill-rule="nonzero" d="M142.064 28.14L28.14 142.065c-37.52 37.52-37.52 98.35 0 135.87L142.064 391.86c37.52 37.52 98.352 37.52 135.871 0L391.86 277.935c36.383-36.382 37.485-94.685 3.308-132.397l-3.308-3.473L277.935 28.14c-37.52-37.52-98.35-37.52-135.87 0z"/>
        <g fill-rule="nonzero">
            <path fill="#002C7C" d="M210 264.5c30.382 0 56.076-20.073 64.544-47.68-3.179 32.848-30.863 58.527-64.545 58.527-33.685 0-61.371-25.684-64.544-58.536 8.463 27.611 34.16 47.689 64.545 47.689z"/>
            <path fill="#FF921A" d="M229.664 135.008h32.133c1.14 0 2.064.924 2.064 2.064v10.002c0 1.614 1.77 2.604 3.145 1.758l34.511-21.21c1.311-.806 1.311-2.711 0-3.517l-34.511-21.21c-1.375-.845-3.145.144-3.145 1.758v10.002c0 1.14-.924 2.064-2.064 2.064h-32.133a2.48 2.48 0 0 0-2.48 2.479v13.33a2.48 2.48 0 0 0 2.48 2.48zM190.336 303.354h-32.133c-1.14 0-2.064.924-2.064 2.064v10.002c0 1.614-1.77 2.604-3.145 1.758l-34.511-21.21c-1.311-.806-1.311-2.711 0-3.517l34.511-21.21c1.375-.845 3.145.144 3.145 1.758v10.002c0 1.14.924 2.064 2.064 2.064h32.133a2.48 2.48 0 0 1 2.48 2.48v13.33a2.48 2.48 0 0 1-2.48 2.479z"/>
            <path fill="#528CF4" d="M291.25 272.847h-55.783c24.546-10.063 41.88-34.219 41.88-62.347 0-37.135-30.212-67.347-67.347-67.347h-81.25a2.5 2.5 0 1 0 0 5h55.783c-24.547 10.063-41.88 34.219-41.88 62.347 0 37.135 30.212 67.347 67.347 67.347h81.25a2.5 2.5 0 1 0 0-5zM147.653 210.5c0-34.378 27.969-62.347 62.347-62.347s62.347 27.969 62.347 62.347-27.969 62.347-62.347 62.347-62.347-27.969-62.347-62.347z"/>
            <path fill="#528CF4" d="M200.5 162a1.5 1.5 0 0 1 1.5 1.5v9.166h16V163.5a1.5 1.5 0 0 1 1.5-1.5h2.333a1.5 1.5 0 0 1 1.5 1.5v9.217c8.95.68 16 8.158 16 17.283v8a17.297 17.297 0 0 1-6.257 13.333 17.297 17.297 0 0 1 6.257 13.334V230c0 9.125-7.05 16.602-16 17.283v9.217a1.5 1.5 0 0 1-1.5 1.5H219.5a1.5 1.5 0 0 1-1.5-1.5v-9.167h-16v9.167a1.5 1.5 0 0 1-1.5 1.5h-2.333a1.5 1.5 0 0 1-1.5-1.5v-9.167h-13.334v-74.666l13.333-.001V163.5a1.5 1.5 0 0 1 1.5-1.5h2.334zm24.167 50.667h-36V242h36a9.333 9.333 0 0 0 9.333-9.333V222a9.333 9.333 0 0 0-9.333-9.333zm0-34.667h-36v29.333h36a9.333 9.333 0 0 0 9.33-9.063L234 198v-10.667a9.333 9.333 0 0 0-9.063-9.33l-.27-.003z"/>
        </g>
        <path fill="#3978E9" fill-rule="nonzero" d="M163 326.196h93c1.657 0 3-1.12 3-2.5s-1.343-2.5-3-2.5h-93c-1.657 0-3 1.12-3 2.5s1.343 2.5 3 2.5zM191.916 339.196h18.168c1.61 0 2.916-1.12 2.916-2.5s-1.306-2.5-2.916-2.5h-18.168c-1.61 0-2.916 1.12-2.916 2.5s1.306 2.5 2.916 2.5zM222 339.196h4.996c1.657 0 3-1.12 3-2.5s-1.343-2.5-3-2.5H222c-1.657 0-3 1.12-3 2.5s1.343 2.5 3 2.5z" opacity=".494"/>
        <path fill="#FFF" d="M108 174l.004.25a8 8 0 0 0 7.747 7.746L116 182a8 8 0 0 0-8 8l-.004-.25a8 8 0 0 0-7.747-7.746L100 182l.25-.004A8 8 0 0 0 108 174zM322 262l.004.25a8 8 0 0 0 7.747 7.746L330 270a8 8 0 0 0-8 8l-.004-.25a8 8 0 0 0-7.747-7.746L314 270l.25-.004A8 8 0 0 0 322 262zM310 164a6 6 0 0 0 5.775 5.996L316 170a6 6 0 0 0-6 6 6 6 0 0 0-5.775-5.996L304 170a6 6 0 0 0 5.996-5.775L310 164zM101 277a5 5 0 0 0 4.783 4.995L106 282a5 5 0 0 0-5 5 5 5 0 0 0-4.783-4.995L96 282a5 5 0 0 0 4.995-4.783L101 277z"/>
        <path fill="#E4C95C" d="M169 80a5 5 0 0 0 4.783 4.995L174 85a5 5 0 0 0-5 5 5 5 0 0 0-4.783-4.995L164 85a5 5 0 0 0 4.995-4.783L169 80z"/>
    </g>
</svg>
