<svg xmlns="http://www.w3.org/2000/svg" width="96" height="96" viewBox="0 0 96 96">
    <g fill="none" fill-rule="nonzero" transform="translate(-928 -17)">
        <rect width="127" height="127" x="912.5" y="1.5" stroke="#0643B8" rx="33"/>
        <g fill="#002C7C">
            <path d="M976.119 47.261a.748.748 0 0 0-.46-1.105l-4.927-1.268a1.302 1.302 0 0 1-.913-.862c-.041.127-.063.26-.063.4v2.952c0 .593.401 1.112.976 1.26l3.972 1.022 1.415-2.399zM996.833 44.888s-3.259.846-4.93 1.278a.748.748 0 0 0-.459 1.105l1.416 2.4 3.973-1.033c.574-.149.976-.667.976-1.26v-2.953c0-.138-.023-.272-.063-.399a1.302 1.302 0 0 1-.913.862zM994.067 51.703l-1.41 1.41c-.42.42-1.07.503-1.582.202l-2.675-1.578a.748.748 0 0 0-1.105.458l-.776 3.007a1.302 1.302 0 0 1-1.26.976h-2.953a1.302 1.302 0 0 1-1.26-.976s-.474-1.83-.777-3.007a.748.748 0 0 0-1.105-.458l-2.675 1.578a1.302 1.302 0 0 1-1.581-.202l-1.411-1.41-.878 1.491a1.302 1.302 0 0 0 .201 1.582l2.088 2.087c.42.42 1.07.503 1.58.202l3.441-2.026c.032-.018.063-.039.093-.06.006.036.013.072.023.108l1 3.865c.15.575.667.976 1.26.976h2.953c.593 0 1.112-.401 1.26-.976l1-3.865c.01-.036.018-.072.024-.107l.092.06 3.441 2.025a1.302 1.302 0 0 0 1.581-.202l2.088-2.087c.42-.42.502-1.07.201-1.582l-.878-1.491zM980.643 87.237l-2.682 2.682c-.61.61-1.556.73-2.3.293l-4.278-2.523a.748.748 0 0 0-1.106.458c-.423 1.645-1.24 4.81-1.24 4.81a1.893 1.893 0 0 1-1.834 1.418h-4.293a1.893 1.893 0 0 1-1.832-1.418l-1.242-4.81a.748.748 0 0 0-1.106-.458c-1.462.864-4.278 2.523-4.278 2.523a1.893 1.893 0 0 1-2.299-.293l-2.682-2.682-.646 1.097a1.893 1.893 0 0 0 .292 2.3l3.036 3.035c.61.61 1.556.73 2.3.293l5.002-2.945a2.11 2.11 0 0 0 .134-.087c.01.052.02.104.034.157l1.455 5.62c.216.835.97 1.419 1.833 1.419h4.293c.863 0 1.617-.584 1.833-1.42l1.455-5.62a1.94 1.94 0 0 0 .034-.156c.043.03.088.06.134.087l5.003 2.945a1.893 1.893 0 0 0 2.299-.293l3.036-3.036c.61-.61.73-1.555.292-2.299l-.647-1.097zM953.16 80.739a.75.75 0 0 0-.474-1.082l-6.607-1.698a1.893 1.893 0 0 1-1.418-1.833v3.75c0 .862.583 1.616 1.418 1.833l5.765 1.479 1.316-2.45zM984.034 77.959l-6.738 1.744a.75.75 0 0 0-.458 1.107l1.42 2.4 5.776-1.502a1.893 1.893 0 0 0 1.418-1.833v-3.75c0 .863-.583 1.617-1.418 1.833z"/>
        </g>
        <path fill="#FF921A" d="M1007.726 65.87l-2.922-.757a1.051 1.051 0 0 0-.081-.018 1.01 1.01 0 0 0 .045-.07l1.531-2.6a.984.984 0 0 0-.152-1.196l-1.578-1.579a.984.984 0 0 0-1.196-.152l-2.601 1.531-.07.045a.93.93 0 0 0-.018-.08l-.756-2.923a.984.984 0 0 0-.953-.738h-2.232a.984.984 0 0 0-.953.738l-.756 2.922a1.051 1.051 0 0 0-.018.081 1.108 1.108 0 0 0-.07-.045l-2.601-1.531a.984.984 0 0 0-1.196.152l-1.578 1.579a.984.984 0 0 0-.152 1.195l1.531 2.601c.014.024.03.048.045.07a.93.93 0 0 0-.081.018l-2.923.756a.984.984 0 0 0-.737.953v2.232c0 .449.303.84.737.953l2.923.756a.899.899 0 0 0 .081.018c-.016.022-.03.045-.045.07l-1.531 2.6a.984.984 0 0 0 .152 1.196l1.578 1.579a.984.984 0 0 0 1.196.152l2.601-1.532c.024-.014.047-.029.07-.045a.93.93 0 0 0 .018.082l.756 2.922a.984.984 0 0 0 .953.738h2.232c.449 0 .84-.304.953-.738l.756-2.922c.008-.027.013-.055.018-.082.023.016.046.031.07.045l2.601 1.532a.984.984 0 0 0 1.196-.152l1.578-1.579a.984.984 0 0 0 .152-1.195l-1.531-2.602a1.108 1.108 0 0 0-.045-.07c.027-.004.054-.01.081-.017l2.923-.756a.984.984 0 0 0 .737-.953v-2.232a.984.984 0 0 0-.738-.953zm-9.867 5.679a3.61 3.61 0 1 1 0-7.22 3.61 3.61 0 0 1 0 7.22z"/>
        <path fill="#528CF4" d="M984.268 72.842l-4.562-1.18 2.39-4.062a2.83 2.83 0 0 0-.437-3.437l-3.036-3.036a2.831 2.831 0 0 0-3.437-.438l-4.061 2.391-1.181-4.563a2.831 2.831 0 0 0-2.74-2.121h-4.294c-1.29 0-2.417.872-2.74 2.121l-1.181 4.563-4.061-2.391a2.831 2.831 0 0 0-3.438.438l-3.036 3.036a2.83 2.83 0 0 0-.437 3.437l2.39 4.062-4.562 1.18a2.83 2.83 0 0 0-2.121 2.74v4.294a2.83 2.83 0 0 0 2.121 2.74l4.563 1.181-2.391 4.062a2.83 2.83 0 0 0 .437 3.438l3.036 3.035a2.83 2.83 0 0 0 3.438.438l4.061-2.391 1.181 4.562a2.83 2.83 0 0 0 2.74 2.122h4.294a2.83 2.83 0 0 0 2.74-2.122l1.181-4.562 4.062 2.39a2.83 2.83 0 0 0 3.437-.437l3.036-3.036a2.83 2.83 0 0 0 .437-3.437l-2.39-4.062 4.562-1.18a2.83 2.83 0 0 0 2.122-2.741v-4.293c-.001-1.29-.873-2.417-2.123-2.74zm.247 7.034a.955.955 0 0 1-.716.925l-5.621 1.455a.803.803 0 0 1-.077.016.937.937 0 0 0-.61 1.466c.016.022.03.044.045.069l2.945 5.003c.221.375.16.852-.147 1.16l-3.036 3.036a.956.956 0 0 1-1.16.148l-5.005-2.946a1.099 1.099 0 0 1-.07-.045.939.939 0 0 0-1.463.607 1.04 1.04 0 0 1-.017.081l-1.455 5.62a.956.956 0 0 1-.925.717h-4.293a.956.956 0 0 1-.925-.716l-1.455-5.62a.89.89 0 0 1-.017-.082.938.938 0 0 0-1.465-.606.875.875 0 0 1-.069.045l-5.002 2.945a.956.956 0 0 1-1.161-.148l-3.036-3.035a.956.956 0 0 1-.147-1.161l2.946-5.004.043-.068a.937.937 0 0 0-.609-1.465.875.875 0 0 1-.077-.017l-5.62-1.455a.956.956 0 0 1-.717-.925v-4.293c0-.436.295-.816.716-.925l5.621-1.455a.876.876 0 0 1 .08-.017.938.938 0 0 0 .607-1.465.875.875 0 0 1-.045-.069l-2.945-5.003a.956.956 0 0 1 .148-1.16l3.035-3.036a.957.957 0 0 1 1.161-.148l5.004 2.946a.894.894 0 0 1 .066.043.936.936 0 0 0 1.466-.605c.005-.027.01-.054.017-.081l1.455-5.62a.956.956 0 0 1 .926-.717h4.293c.435 0 .816.295.925.717l1.455 5.62c.007.027.012.054.017.08a.938.938 0 0 0 1.465.606.985.985 0 0 1 .069-.044l5.003-2.945a.956.956 0 0 1 1.16.148l3.036 3.036a.956.956 0 0 1 .148 1.16l-2.946 5.005a.813.813 0 0 1-.043.065.936.936 0 0 0 .605 1.466l.081.018 5.62 1.455c.422.11.716.49.716.925v4.292z"/>
        <path fill="#3774E4" d="M965.057 69.848c-4.346 0-7.88 3.536-7.88 7.881 0 4.346 3.534 7.881 7.88 7.881 4.345 0 7.88-3.535 7.88-7.88 0-4.346-3.535-7.882-7.88-7.882zm0 13.887a6.013 6.013 0 0 1-6.006-6.006 6.013 6.013 0 0 1 6.006-6.006 6.013 6.013 0 0 1 6.005 6.006 6.013 6.013 0 0 1-6.005 6.006zM983.782 40.189a5.719 5.719 0 0 0-5.712 5.712 5.719 5.719 0 0 0 5.712 5.713 5.719 5.719 0 0 0 5.712-5.713 5.719 5.719 0 0 0-5.712-5.712zm0 9.55a3.842 3.842 0 0 1-3.837-3.837 3.842 3.842 0 0 1 3.837-3.838 3.841 3.841 0 0 1 3.837 3.838 3.841 3.841 0 0 1-3.837 3.837z"/>
        <path fill="#528CF4" d="M997.067 42.257l-2.761-.714 1.447-2.459a2.24 2.24 0 0 0-.346-2.72l-2.088-2.087a2.239 2.239 0 0 0-2.72-.347l-2.458 1.448-.714-2.762a2.24 2.24 0 0 0-2.169-1.678h-2.952c-1.02 0-1.912.69-2.168 1.678l-.715 2.762-2.458-1.448a2.24 2.24 0 0 0-2.72.347l-2.087 2.088a2.238 2.238 0 0 0-.346 2.72l1.447 2.457-2.762.715a2.24 2.24 0 0 0-1.678 2.168v2.953c0 1.02.69 1.912 1.678 2.168l2.762.715-1.447 2.458a2.24 2.24 0 0 0 .346 2.72l2.087 2.087a2.24 2.24 0 0 0 2.72.346l2.458-1.447.716 2.762a2.24 2.24 0 0 0 2.167 1.678h2.953a2.24 2.24 0 0 0 2.168-1.678l.715-2.762 2.458 1.447c.88.518 1.998.376 2.72-.346l2.087-2.088a2.24 2.24 0 0 0 .347-2.72l-1.447-2.458 2.761-.715a2.24 2.24 0 0 0 1.679-2.168v-2.952a2.24 2.24 0 0 0-1.68-2.168zm-.196 5.12a.364.364 0 0 1-.273.353l-3.894 1.007a.94.94 0 0 0-.7.578.966.966 0 0 0 .108.915l2.025 3.44a.365.365 0 0 1-.056.443l-2.088 2.088a.365.365 0 0 1-.443.056l-3.468-2.044a.941.941 0 0 0-.904-.085.965.965 0 0 0-.567.724l-1 3.865a.364.364 0 0 1-.353.273h-2.952a.364.364 0 0 1-.353-.273l-1.008-3.899a.94.94 0 0 0-.579-.696.914.914 0 0 0-.35-.068.984.984 0 0 0-.562.177l-3.44 2.025a.364.364 0 0 1-.443-.056l-2.088-2.087a.365.365 0 0 1-.056-.443l2.042-3.466a.94.94 0 0 0 .087-.905.964.964 0 0 0-.724-.568l-3.866-1a.364.364 0 0 1-.273-.354v-2.952c0-.166.113-.311.273-.353l3.894-1.007a.94.94 0 0 0 .7-.578.966.966 0 0 0-.108-.914l-2.025-3.441a.364.364 0 0 1 .056-.442l2.088-2.088c.117-.117.3-.14.442-.056l3.466 2.042a.94.94 0 0 0 .903.085.968.968 0 0 0 .57-.722l1-3.865a.365.365 0 0 1 .353-.274h2.953c.166 0 .31.113.353.274l1.006 3.894c.054.318.28.578.579.701a.964.964 0 0 0 .914-.11l3.44-2.025a.365.365 0 0 1 .443.056l2.088 2.088c.117.118.14.3.056.443l-2.044 3.468a.941.941 0 0 0-.085.904.965.965 0 0 0 .724.567l3.865 1c.16.042.273.187.273.353v2.953h.001z"/>
    </g>
</svg>
