<svg xmlns="http://www.w3.org/2000/svg" width="420" height="420" viewBox="0 0 420 420">
    <g fill="none" fill-rule="evenodd">
        <path fill="#01379E" fill-rule="nonzero" d="M142.064 28.14L28.14 142.065c-37.52 37.52-37.52 98.35 0 135.87L142.064 391.86c37.52 37.52 98.352 37.52 135.871 0L391.86 277.935c36.383-36.382 37.485-94.685 3.308-132.397l-3.308-3.473L277.935 28.14c-37.52-37.52-98.35-37.52-135.87 0z"/>
        <g fill-rule="nonzero">
            <path fill="#002C7C" d="M317.826 224.655h-46.151a2 2 0 0 0-2 2v24.773h48.151v-26.773zM102.174 224.655h46.151a2 2 0 0 1 2 2v24.773h-48.151v-26.773z"/>
            <path fill="#528CF4" d="M295.681 187.913c4.599-4.63 7.271-10.938 7.271-17.701 0-13.862-11.278-25.14-25.141-25.14-13.863 0-25.14 11.278-25.14 25.14 0 6.763 2.673 13.071 7.271 17.701a26.502 26.502 0 0 0-10.493 2.967 2.5 2.5 0 1 0 2.328 4.424 21.509 21.509 0 0 1 9.975-2.454h5.706a2.5 2.5 0 0 0 1.145-4.723c-6.743-3.473-10.932-10.338-10.932-17.917 0-11.105 9.034-20.14 20.14-20.14s20.141 9.035 20.141 20.14a20.08 20.08 0 0 1-10.932 17.917 2.5 2.5 0 0 0 1.145 4.723h5.705c11.831 0 21.457 9.625 21.457 21.457v34.62h-45.651a2.5 2.5 0 1 0 0 5h48.151a2.5 2.5 0 0 0 2.5-2.5v-37.12c-.001-13.978-10.9-25.46-24.646-26.394zM170.551 190.881a26.502 26.502 0 0 0-10.493-2.967c4.599-4.63 7.271-10.938 7.271-17.701 0-13.862-11.277-25.14-25.14-25.14-13.863 0-25.14 11.277-25.14 25.139 0 6.763 2.672 13.07 7.271 17.701-13.746.934-24.646 12.416-24.646 26.395v37.12a2.5 2.5 0 0 0 2.5 2.5h48.151a2.5 2.5 0 1 0 0-5h-45.651v-34.62c0-11.831 9.626-21.457 21.457-21.457h5.705a2.5 2.5 0 0 0 1.145-4.723c-6.743-3.473-10.932-10.338-10.932-17.917 0-11.105 9.035-20.14 20.141-20.14 11.106 0 20.14 9.035 20.14 20.14a20.08 20.08 0 0 1-10.932 17.917 2.5 2.5 0 0 0 1.145 4.723h5.706c3.474 0 6.923.849 9.975 2.454a2.502 2.502 0 0 0 3.377-1.048 2.502 2.502 0 0 0-1.05-3.376z"/>
            <path fill="#FF921A" d="M229.935 198.181h-7.082c9.347-4.815 15.646-14.719 15.234-26.05-.525-14.422-12.343-26.362-26.759-27.025-16.125-.742-29.433 12.112-29.433 28.075 0 10.891 6.195 20.335 15.253 25.001h-7.082c-16.424 0-29.74 13.315-29.74 29.739v42.338a3.742 3.742 0 0 0 3.742 3.742h91.866a3.742 3.742 0 0 0 3.742-3.742V227.92c-.001-16.424-13.317-29.739-29.741-29.739z"/>
            <path fill="#FFF" d="M206.183 228.675c0-2.496.816-4.992 4.08-4.992 2.16 0 3.408 1.104 3.408 3.072 0 1.482-.411 2.217-2.454 3.655l-.906.617c-3.504 2.352-4.416 3.984-4.416 8.16v1.2h7.584c0-3.648 1.152-4.032 5.232-6.624 2.64-1.68 3.744-3.792 3.744-7.152 0-6.672-5.904-9.888-11.904-9.888-8.256 0-12.48 4.656-12.816 11.952h8.448zm7.728 14.352v8.64h-8.64v-8.64h8.64z"/>
        </g>
        <path fill="#FFF" d="M192 91l.004.25a8 8 0 0 0 7.747 7.746L200 99a8 8 0 0 0-8 8l-.004-.25a8 8 0 0 0-7.747-7.746L184 99l.25-.004A8 8 0 0 0 192 91zM354 244l.004.25a8 8 0 0 0 7.747 7.746L362 252a8 8 0 0 0-8 8l-.004-.25a8 8 0 0 0-7.747-7.746L346 252l.25-.004A8 8 0 0 0 354 244zM332 129a6 6 0 0 0 5.775 5.996L338 135a6 6 0 0 0-6 6 6 6 0 0 0-5.775-5.996L326 135a6 6 0 0 0 5.996-5.775L332 129zM128 288a5 5 0 0 0 4.783 4.995L133 293a5 5 0 0 0-5 5 5 5 0 0 0-4.783-4.995L123 293a5 5 0 0 0 4.995-4.783L128 288z"/>
        <path fill="#E4C95C" d="M62 171a5 5 0 0 0 4.783 4.995L67 176a5 5 0 0 0-5 5 5 5 0 0 0-4.783-4.995L57 176a5 5 0 0 0 4.995-4.783L62 171z"/>
        <path fill="#3978E9" fill-rule="nonzero" d="M163 326.196h93c1.657 0 3-1.12 3-2.5s-1.343-2.5-3-2.5h-93c-1.657 0-3 1.12-3 2.5s1.343 2.5 3 2.5zM191.916 339.196h18.168c1.61 0 2.916-1.12 2.916-2.5s-1.306-2.5-2.916-2.5h-18.168c-1.61 0-2.916 1.12-2.916 2.5s1.306 2.5 2.916 2.5zM222 339.196h4.996c1.657 0 3-1.12 3-2.5s-1.343-2.5-3-2.5H222c-1.657 0-3 1.12-3 2.5s1.343 2.5 3 2.5z" opacity=".494"/>
    </g>
</svg>
