<svg xmlns="http://www.w3.org/2000/svg" width="96" height="96" viewBox="0 0 96 96">
    <g fill="none" fill-rule="nonzero" transform="translate(-700 -17)">
        <rect width="127" height="127" x="684.5" y="1.5" stroke="#0643B8" rx="33"/>
        <path fill="#002C7C" d="M748 91.413c-16.756 0-30.51-12.853-31.94-29.237-.08.93-.122 1.872-.122 2.824 0 17.708 14.355 32.063 32.062 32.063 17.708 0 32.063-14.355 32.063-32.063 0-.952-.042-1.894-.123-2.825-1.43 16.385-15.184 29.239-31.94 29.239z"/>
        <path fill="#528CF4" d="M781 65a32.84 32.84 0 0 0-7.084-20.407c-.008-.014-.012-.028-.02-.041a.937.937 0 0 0-.164-.188C767.678 36.831 758.394 32 748 32c-10.393 0-19.678 4.832-25.732 12.364a.935.935 0 0 0-.163.188c-.009.013-.013.027-.02.04A32.839 32.839 0 0 0 715 65c0 7.699 2.65 14.79 7.086 20.41.007.012.012.026.02.038.045.07.1.13.16.185C728.319 93.167 737.606 98 748 98c10.39 0 19.672-4.828 25.726-12.357a.932.932 0 0 0 .168-.195c.008-.012.013-.026.02-.039A32.838 32.838 0 0 0 781 65zm-17.696 11.166a.939.939 0 0 0-1.108.728c-.175.843-.37 1.663-.579 2.464-4.209-.985-8.826-1.516-13.6-1.517H748c-4.78 0-9.404.53-13.618 1.517-.207-.793-.4-1.605-.573-2.44a.937.937 0 1 0-1.836.381c.18.862.377 1.7.59 2.52-3.538.97-6.733 2.278-9.425 3.883a30.951 30.951 0 0 1-6.239-17.764h7.671a.937.937 0 1 0 0-1.875h-7.671a30.957 30.957 0 0 1 6.238-17.765c2.692 1.605 5.887 2.913 9.425 3.883a52.29 52.29 0 0 0-.59 2.52.937.937 0 1 0 1.836.381 49.54 49.54 0 0 1 .573-2.44c4.215.986 8.838 1.517 13.618 1.517h.017c4.775-.001 9.392-.532 13.601-1.518.198.756.382 1.53.549 2.323a.938.938 0 0 0 1.835-.386 52.676 52.676 0 0 0-.563-2.397c3.537-.97 6.732-2.278 9.423-3.883a30.951 30.951 0 0 1 6.24 17.765h-7.671a.937.937 0 1 0 0 1.875h7.671a30.955 30.955 0 0 1-6.239 17.764c-2.691-1.605-5.886-2.913-9.424-3.883.214-.827.414-1.674.594-2.545a.938.938 0 0 0-.727-1.108zM747.077 96.06c-4.968-.633-9.567-6.324-12.186-14.9 3.776-.877 7.904-1.37 12.186-1.432V96.06zm1.875-.003V79.729c4.272.064 8.39.558 12.157 1.432-2.614 8.56-7.199 14.245-12.157 14.897zm0-62.115c4.952.652 9.544 6.34 12.158 14.896-3.768.875-7.886 1.367-12.158 1.431V33.943zm-1.875-.004v16.332c-4.282-.062-8.41-.555-12.186-1.432 2.62-8.576 7.218-14.267 12.186-14.9zm24.597 10.888c-2.506 1.46-5.467 2.657-8.741 3.554-1.876-6.218-4.736-10.997-8.123-13.746 6.685 1.498 12.562 5.15 16.864 10.192zm-30.489-10.191c-3.386 2.749-6.244 7.525-8.118 13.744-3.275-.896-6.236-2.092-8.74-3.553 4.3-5.04 10.175-8.692 16.858-10.191zm-16.859 50.538c2.505-1.461 5.466-2.658 8.74-3.554 1.875 6.219 4.733 10.995 8.12 13.744-6.684-1.5-12.559-5.15-16.86-10.19zm30.49 10.19c3.387-2.749 6.244-7.525 8.118-13.744 3.274.896 6.235 2.093 8.74 3.554-4.3 5.039-10.175 8.69-16.858 10.19z"/>
        <path fill="#FF921A" d="M748 54.574c11.15 0 19.996 9.388 20.367 9.788a.937.937 0 0 1 0 1.276c-.371.4-9.217 9.788-20.367 9.788s-19.996-9.388-20.367-9.788a.937.937 0 0 1 0-1.276c.371-.4 9.218-9.788 20.367-9.788zm0 4.804a5.622 5.622 0 1 0 0 11.244 5.622 5.622 0 0 0 0-11.244z"/>
    </g>
</svg>
