<svg xmlns="http://www.w3.org/2000/svg" width="96" height="96" viewBox="0 0 96 96">
    <g fill="none" fill-rule="nonzero" transform="translate(-244 -17)">
        <rect width="127" height="127" x="228.5" y="1.5" stroke="#0643B8" rx="33"/>
        <path fill="#002C7C" d="M332.435 70.496h-17.307a.75.75 0 0 0-.75.75v9.29h18.057v-10.04zM251.565 70.496h17.307a.75.75 0 0 1 .75.75v9.29h-18.057v-10.04z"/>
        <path fill="#528CF4" d="M324.13 56.717a9.394 9.394 0 0 0 2.727-6.637c0-5.199-4.23-9.428-9.428-9.428s-9.427 4.23-9.427 9.428a9.395 9.395 0 0 0 2.726 6.637 9.938 9.938 0 0 0-3.935 1.113.938.938 0 1 0 .873 1.659 8.066 8.066 0 0 1 3.741-.92h2.14a.938.938 0 0 0 .43-1.771 7.53 7.53 0 0 1-4.1-6.72c0-4.164 3.387-7.552 7.552-7.552 4.165 0 7.553 3.388 7.553 7.553a7.53 7.53 0 0 1-4.1 6.719.937.937 0 0 0 .43 1.77h2.14c4.436 0 8.046 3.61 8.046 8.047v12.983h-17.12a.937.937 0 1 0 0 1.875h18.057c.518 0 .938-.42.938-.938v-13.92c0-5.242-4.088-9.547-9.243-9.898zM277.207 57.83a9.938 9.938 0 0 0-3.935-1.112 9.394 9.394 0 0 0 2.726-6.638c0-5.198-4.228-9.428-9.427-9.428s-9.428 4.23-9.428 9.427a9.394 9.394 0 0 0 2.727 6.638c-5.155.35-9.242 4.656-9.242 9.898v13.92c0 .518.42.938.937.938h18.057a.937.937 0 1 0 0-1.875h-17.12V66.616c0-4.437 3.61-8.047 8.047-8.047h2.14a.938.938 0 0 0 .429-1.771 7.53 7.53 0 0 1-4.1-6.719c0-4.164 3.389-7.552 7.553-7.552 4.165 0 7.553 3.388 7.553 7.552a7.53 7.53 0 0 1-4.1 6.719.937.937 0 0 0 .43 1.771h2.14c1.302 0 2.595.319 3.74.92a.938.938 0 0 0 .873-1.659z"/>
        <path fill="#FF921A" d="M299.476 60.568h-2.656a10.54 10.54 0 0 0 5.713-9.769c-.197-5.408-4.629-9.886-10.035-10.134-6.047-.278-11.037 4.542-11.037 10.528 0 4.084 2.323 7.626 5.72 9.375h-2.656c-6.16 0-11.153 4.993-11.153 11.152v15.877c0 .775.628 1.403 1.403 1.403h34.45c.775 0 1.403-.628 1.403-1.403V71.72c0-6.159-4.993-11.152-11.152-11.152z"/>
        <path fill="#FFF" d="M290.568 72.003c0-.936.306-1.872 1.53-1.872.81 0 1.278.414 1.278 1.152 0 .556-.154.831-.92 1.37l-.34.232c-1.314.882-1.656 1.494-1.656 3.06v.45h2.844c0-1.368.432-1.512 1.962-2.484.99-.63 1.404-1.422 1.404-2.682 0-2.502-2.214-3.708-4.464-3.708-3.096 0-4.68 1.746-4.806 4.482h3.168zm2.898 5.382v3.24h-3.24v-3.24h3.24z"/>
    </g>
</svg>
