<svg xmlns="http://www.w3.org/2000/svg" width="420" height="420" viewBox="0 0 420 420">
    <g fill="none" fill-rule="evenodd">
        <path fill="#01379E" fill-rule="nonzero" d="M142.064 28.14L28.14 142.065c-37.52 37.52-37.52 98.35 0 135.87L142.064 391.86c37.52 37.52 98.352 37.52 135.871 0L391.86 277.935c36.383-36.382 37.485-94.685 3.308-132.397l-3.308-3.473L277.935 28.14c-37.52-37.52-98.35-37.52-135.87 0z"/>
        <g fill-rule="nonzero">
            <path fill="#002C7C" d="M210 280.436c-44.682 0-81.359-34.275-85.173-77.968A86.857 86.857 0 0 0 124.5 210c0 47.22 38.28 85.5 85.5 85.5s85.5-38.28 85.5-85.5c0-2.538-.111-5.05-.327-7.532-3.814 43.693-40.491 77.968-85.173 77.968z"/>
            <path fill="#528CF4" d="M298 210c0-20.526-7.066-39.433-18.89-54.418-.021-.037-.033-.075-.056-.111a2.499 2.499 0 0 0-.436-.5C262.475 134.883 237.716 122 210 122c-27.716 0-52.476 12.884-68.618 32.972a2.492 2.492 0 0 0-.435.499c-.023.035-.035.074-.056.11C129.066 170.566 122 189.473 122 210c0 20.53 7.068 39.439 18.896 54.425.019.033.031.07.052.103.121.189.269.348.428.493C157.518 285.113 182.281 298 210 298c27.707 0 52.46-12.875 68.602-32.952.169-.15.322-.32.45-.52.021-.033.033-.069.052-.103C290.932 249.439 298 230.53 298 210zm-47.188 29.775a2.503 2.503 0 0 0-2.956 1.941 131.955 131.955 0 0 1-1.543 6.573c-11.224-2.628-23.536-4.043-36.268-4.046l-.006-.001-.005.001-.034-.001c-12.748 0-25.077 1.416-36.314 4.047a130.978 130.978 0 0 1-1.529-6.508 2.5 2.5 0 1 0-4.895 1.017 139.722 139.722 0 0 0 1.572 6.719c-9.435 2.585-17.955 6.075-25.132 10.354a82.537 82.537 0 0 1-16.637-47.371h20.455a2.5 2.5 0 1 0 0-5h-20.457a82.553 82.553 0 0 1 16.637-47.371c7.177 4.279 15.698 7.768 25.132 10.354a139.442 139.442 0 0 0-1.572 6.719 2.5 2.5 0 1 0 4.895 1.017c.462-2.226.977-4.392 1.529-6.508 11.238 2.631 23.566 4.047 36.314 4.047h.039l.006-.001c12.733-.003 25.046-1.419 36.27-4.047a130.179 130.179 0 0 1 1.462 6.195 2.501 2.501 0 0 0 4.894-1.028 140.469 140.469 0 0 0-1.502-6.395c9.434-2.585 17.954-6.074 25.13-10.353a82.537 82.537 0 0 1 16.637 47.371H272.48a2.5 2.5 0 1 0 0 5h20.456a82.546 82.546 0 0 1-16.637 47.371c-7.177-4.279-15.697-7.768-25.132-10.354a140.484 140.484 0 0 0 1.586-6.786 2.501 2.501 0 0 0-1.941-2.956zm-43.273 53.054c-13.248-1.688-25.512-16.865-32.497-39.733 10.069-2.338 21.078-3.653 32.497-3.819v43.552zm5-.009v-43.542c11.391.171 22.372 1.486 32.418 3.818-6.97 22.826-19.197 37.987-32.418 39.724zm0-165.64c13.205 1.74 25.449 16.908 32.421 39.723-10.047 2.333-21.029 3.647-32.421 3.818V127.18zm-5-.009v43.552c-11.419-.166-22.428-1.481-32.497-3.819 6.985-22.869 19.249-38.046 32.497-39.733zm65.591 29.033c-6.681 3.897-14.577 7.087-23.31 9.478-5.001-16.582-12.627-29.325-21.66-36.656 17.827 3.995 33.498 13.736 44.97 27.178zm-81.303-27.175c-9.031 7.33-16.651 20.067-21.649 36.652-8.732-2.39-16.628-5.58-23.308-9.477 11.469-13.439 27.135-23.177 44.957-27.175zM146.87 263.796c6.68-3.896 14.576-7.087 23.308-9.477 4.998 16.584 12.618 29.322 21.649 36.652-17.822-3.998-33.488-13.736-44.957-27.175zm81.307 27.175c9.031-7.33 16.649-20.066 21.646-36.651 8.732 2.39 16.627 5.58 23.307 9.477-11.468 13.437-27.133 23.175-44.953 27.174z"/>
            <path fill="#FF921A" d="M210 182.198c29.732 0 53.322 25.035 54.312 26.101a2.499 2.499 0 0 1 0 3.402c-.99 1.066-24.58 26.102-54.312 26.102s-53.322-25.036-54.312-26.102a2.499 2.499 0 0 1 0-3.402c.99-1.065 24.58-26.101 54.312-26.101zm0 12.811c-8.28 0-14.991 6.712-14.991 14.991 0 8.28 6.712 14.991 14.991 14.991 8.28 0 14.991-6.712 14.991-14.991 0-8.28-6.712-14.991-14.991-14.991z"/>
        </g>
        <path fill="#3978E9" fill-rule="nonzero" d="M163 326.196h93c1.657 0 3-1.12 3-2.5s-1.343-2.5-3-2.5h-93c-1.657 0-3 1.12-3 2.5s1.343 2.5 3 2.5zM191.916 339.196h18.168c1.61 0 2.916-1.12 2.916-2.5s-1.306-2.5-2.916-2.5h-18.168c-1.61 0-2.916 1.12-2.916 2.5s1.306 2.5 2.916 2.5zM222 339.196h4.996c1.657 0 3-1.12 3-2.5s-1.343-2.5-3-2.5H222c-1.657 0-3 1.12-3 2.5s1.343 2.5 3 2.5z" opacity=".494"/>
        <path fill="#FFF" d="M115 274l.004.25a8 8 0 0 0 7.747 7.746L123 282a8 8 0 0 0-8 8l-.004-.25a8 8 0 0 0-7.747-7.746L107 282l.25-.004A8 8 0 0 0 115 274zM322 156l.004.25a8 8 0 0 0 7.747 7.746L330 164a8 8 0 0 0-8 8l-.004-.25a8 8 0 0 0-7.747-7.746L314 164l.25-.004A8 8 0 0 0 322 156zM305 262a6 6 0 0 0 5.775 5.996L311 268a6 6 0 0 0-6 6 6 6 0 0 0-5.775-5.996L299 268a6 6 0 0 0 5.996-5.775L305 262zM101 172a5 5 0 0 0 4.783 4.995L106 177a5 5 0 0 0-5 5 5 5 0 0 0-4.783-4.995L96 177a5 5 0 0 0 4.995-4.783L101 172z"/>
        <path fill="#E4C95C" d="M248 91a5 5 0 0 0 4.783 4.995L253 96a5 5 0 0 0-5 5 5 5 0 0 0-4.783-4.995L243 96a5 5 0 0 0 4.995-4.783L248 91z"/>
    </g>
</svg>
