<svg xmlns="http://www.w3.org/2000/svg" width="96" height="96" viewBox="0 0 96 96">
    <g fill="none" fill-rule="nonzero" transform="translate(-472 -17)">
        <rect width="127" height="127" x="456.5" y="1.5" stroke="#0643B8" rx="33"/>
        <path fill="#002C7C" d="M520 78.284c-11.5 0-21.134-7.982-23.667-18.707a24.391 24.391 0 0 0-.651 5.61c0 13.43 10.887 24.318 24.318 24.318 13.43 0 24.317-10.887 24.317-24.317 0-1.931-.225-3.81-.65-5.61-2.533 10.724-12.168 18.706-23.667 18.706z"/>
        <path fill="#FF921A" d="M527.374 36.878h12.05c.427 0 .774.347.774.774v3.75c0 .606.664.977 1.18.66l12.94-7.954a.774.774 0 0 0 0-1.319l-12.94-7.953a.774.774 0 0 0-1.18.659v3.75a.774.774 0 0 1-.774.775h-12.05a.93.93 0 0 0-.93.93v4.998c0 .514.417.93.93.93zM512.626 100.008h-12.05a.774.774 0 0 0-.774.774v3.75a.774.774 0 0 1-1.18.66l-12.94-7.954a.774.774 0 0 1 0-1.319l12.94-7.954a.774.774 0 0 1 1.18.66v3.75c0 .428.347.774.774.774h12.05a.93.93 0 0 1 .93.93v5a.93.93 0 0 1-.93.929z"/>
        <path fill="#528CF4" d="M550.469 88.568H529.55c9.205-3.774 15.705-12.833 15.705-23.38 0-13.926-11.33-25.256-25.255-25.256h-30.469a.937.937 0 1 0 0 1.875h20.919c-9.205 3.774-15.705 12.832-15.705 23.38 0 13.926 11.33 25.256 25.255 25.256h30.469a.937.937 0 1 0 0-1.875zm-53.85-23.38c0-12.892 10.49-23.38 23.381-23.38 12.892 0 23.38 10.488 23.38 23.38 0 12.891-10.488 23.38-23.38 23.38s-23.38-10.489-23.38-23.38z"/>
        <path fill="#528CF4" d="M524 47a1 1 0 0 1 1 1v3.019a6.5 6.5 0 0 1 6 6.481v3c0 2.01-.913 3.808-2.347 5a6.483 6.483 0 0 1 2.347 5v2a6.5 6.5 0 0 1-6 6.481V82a1 1 0 0 1-2 0v-3h-6v3a1 1 0 0 1-2 0v-3h-5V51h5v-3a1 1 0 0 1 2 0v3h6v-3a1 1 0 0 1 1-1zm-7 30h8.5a3.5 3.5 0 0 0 3.5-3.5v-4a3.5 3.5 0 0 0-3.5-3.5H512v11h5zm8.5-24H512v11h13.5a3.5 3.5 0 0 0 3.495-3.308L529 60.5v-4a3.5 3.5 0 0 0-3.308-3.495L525.5 53z"/>
    </g>
</svg>
