<svg xmlns="http://www.w3.org/2000/svg" width="420" height="420" viewBox="0 0 420 420">
    <g fill="none" fill-rule="evenodd">
        <path fill="#01379E" fill-rule="nonzero" d="M142.064 28.14L28.14 142.065c-37.52 37.52-37.52 98.35 0 135.87L142.064 391.86c37.52 37.52 98.352 37.52 135.871 0L391.86 277.935c36.383-36.382 37.485-94.685 3.308-132.397l-3.308-3.473L277.935 28.14c-37.52-37.52-98.35-37.52-135.87 0z"/>
        <g fill-rule="nonzero">
            <g fill="#002C7C">
                <path d="M210.316 161.697a1.994 1.994 0 0 0-1.224-2.948c-4.461-1.145-13.141-3.381-13.141-3.381a3.473 3.473 0 0 1-2.435-2.298 3.453 3.453 0 0 0-.167 1.064v7.873a3.47 3.47 0 0 0 2.602 3.361l10.594 2.726c-.001 0 2.252-3.823 3.771-6.397zM265.554 155.368s-8.689 2.255-13.148 3.409a1.994 1.994 0 0 0-1.221 2.947c1.519 2.573 3.775 6.401 3.775 6.401l10.594-2.757a3.472 3.472 0 0 0 2.602-3.361v-7.873c0-.369-.059-.726-.167-1.064a3.473 3.473 0 0 1-2.435 2.298zM258.179 173.54l-3.762 3.762a3.471 3.471 0 0 1-4.216.537s-4.344-2.56-7.133-4.206a1.994 1.994 0 0 0-2.948 1.221c-.808 3.136-2.07 8.018-2.07 8.018a3.473 3.473 0 0 1-3.361 2.602h-7.873a3.472 3.472 0 0 1-3.361-2.602s-1.262-4.882-2.07-8.018a1.994 1.994 0 0 0-2.948-1.221c-2.789 1.646-7.133 4.206-7.133 4.206a3.472 3.472 0 0 1-4.217-.537l-3.762-3.762-2.342 3.978a3.472 3.472 0 0 0 .537 4.217l5.567 5.567a3.471 3.471 0 0 0 4.216.537l9.175-5.401c.085-.05.167-.104.246-.159.016.095.037.191.062.286l2.668 10.307a3.473 3.473 0 0 0 3.361 2.602h7.873a3.472 3.472 0 0 0 3.361-2.602l2.668-10.307c.025-.096.045-.191.062-.286.079.056.161.109.246.159l9.175 5.401a3.472 3.472 0 0 0 4.217-.537l5.567-5.567a3.472 3.472 0 0 0 .537-4.217l-2.342-3.978zM222.382 268.298l-7.153 7.153a5.049 5.049 0 0 1-6.131.781s-7.51-4.425-11.409-6.729a1.995 1.995 0 0 0-2.949 1.222c-1.129 4.386-3.31 12.826-3.31 12.826a5.049 5.049 0 0 1-4.888 3.783h-11.448a5.048 5.048 0 0 1-4.887-3.783s-2.181-8.44-3.31-12.825a1.995 1.995 0 0 0-2.949-1.222c-3.899 2.303-11.409 6.728-11.409 6.728a5.047 5.047 0 0 1-6.131-.781l-7.153-7.153-1.723 2.927a5.049 5.049 0 0 0 .781 6.131l8.095 8.095a5.049 5.049 0 0 0 6.131.781l13.341-7.854c.124-.073.243-.151.358-.231.024.139.053.277.09.417l3.88 14.988a5.049 5.049 0 0 0 4.888 3.783h11.448a5.05 5.05 0 0 0 4.888-3.784l3.88-14.987c.036-.139.066-.278.09-.417.115.081.234.159.358.231l13.341 7.854a5.049 5.049 0 0 0 6.131-.781l8.095-8.095a5.05 5.05 0 0 0 .781-6.132l-1.726-2.926zM149.094 250.97a2 2 0 0 0-1.264-2.884l-17.618-4.53a5.048 5.048 0 0 1-3.783-4.888v10a5.05 5.05 0 0 0 3.783 4.888l15.371 3.944 3.511-6.53zM231.423 243.556l-17.968 4.651a2 2 0 0 0-1.22 2.954l3.784 6.401 15.404-4.006a5.049 5.049 0 0 0 3.783-4.888v-10a5.049 5.049 0 0 1-3.783 4.888z"/>
            </g>
            <path fill="#FF921A" d="M294.604 211.318l-7.793-2.017a2.803 2.803 0 0 0-.217-.047 2.69 2.69 0 0 0 .12-.186l4.084-6.937a2.625 2.625 0 0 0-.406-3.188l-4.209-4.209a2.625 2.625 0 0 0-3.188-.406l-6.937 4.084a2.954 2.954 0 0 0-.186.12 2.48 2.48 0 0 0-.047-.217l-2.017-7.793a2.625 2.625 0 0 0-2.541-1.967h-5.953a2.625 2.625 0 0 0-2.541 1.967l-2.017 7.793a2.803 2.803 0 0 0-.047.217 2.954 2.954 0 0 0-.186-.12l-6.937-4.084a2.625 2.625 0 0 0-3.188.406l-4.209 4.209a2.625 2.625 0 0 0-.406 3.188l4.084 6.937c.038.064.078.126.12.186a2.48 2.48 0 0 0-.217.047l-7.793 2.017a2.625 2.625 0 0 0-1.967 2.541v5.952c0 1.197.809 2.242 1.967 2.541l7.793 2.017c.072.019.145.034.217.046-.042.06-.082.122-.12.186l-4.084 6.937a2.625 2.625 0 0 0 .406 3.188l4.209 4.209a2.625 2.625 0 0 0 3.188.406l6.937-4.084c.064-.038.126-.078.186-.12.012.072.028.144.047.217l2.017 7.793a2.625 2.625 0 0 0 2.541 1.967h5.953a2.624 2.624 0 0 0 2.541-1.967l2.017-7.793c.019-.072.034-.145.047-.217.06.042.122.082.186.12l6.937 4.084a2.625 2.625 0 0 0 3.188-.406l4.209-4.209a2.625 2.625 0 0 0 .406-3.188l-4.084-6.937a2.954 2.954 0 0 0-.12-.186c.072-.012.144-.028.217-.046l7.793-2.017a2.625 2.625 0 0 0 1.967-2.541v-5.952a2.625 2.625 0 0 0-1.967-2.541zm-26.313 15.145a9.627 9.627 0 0 1-9.627-9.627 9.627 9.627 0 0 1 9.627-9.627 9.627 9.627 0 0 1 9.627 9.627 9.627 9.627 0 0 1-9.627 9.627z"/>
            <path fill="#528CF4" d="M232.049 229.913l-12.167-3.149 6.376-10.83a7.547 7.547 0 0 0-1.167-9.167l-8.095-8.096a7.55 7.55 0 0 0-9.167-1.167l-10.83 6.376-3.149-12.167a7.55 7.55 0 0 0-7.308-5.657h-11.448a7.55 7.55 0 0 0-7.308 5.657l-3.149 12.167-10.83-6.376a7.55 7.55 0 0 0-9.167 1.167l-8.095 8.096a7.547 7.547 0 0 0-1.167 9.167l6.376 10.83-12.167 3.149a7.549 7.549 0 0 0-5.657 7.308v11.448a7.549 7.549 0 0 0 5.657 7.308l12.167 3.149-6.376 10.83a7.548 7.548 0 0 0 1.167 9.168l8.095 8.094a7.548 7.548 0 0 0 9.168 1.168l10.83-6.376 3.149 12.167a7.549 7.549 0 0 0 7.308 5.657h11.448a7.549 7.549 0 0 0 7.308-5.657L197 282.01l10.831 6.376a7.548 7.548 0 0 0 9.167-1.168l8.095-8.095a7.547 7.547 0 0 0 1.167-9.167l-6.376-10.83 12.167-3.149a7.549 7.549 0 0 0 5.657-7.308v-11.448a7.552 7.552 0 0 0-5.659-7.308zm.657 18.755a2.547 2.547 0 0 1-1.91 2.467l-14.989 3.88a2.142 2.142 0 0 1-.205.044 2.499 2.499 0 0 0-1.624 3.909c.041.058.079.118.118.183l7.854 13.341a2.55 2.55 0 0 1-.394 3.095l-8.096 8.095a2.548 2.548 0 0 1-3.094.395l-13.345-7.856a2.93 2.93 0 0 1-.185-.12 2.5 2.5 0 0 0-3.902 1.62 2.771 2.771 0 0 1-.046.216l-3.88 14.987a2.548 2.548 0 0 1-2.467 1.91h-11.447a2.548 2.548 0 0 1-2.467-1.91l-3.88-14.987a2.376 2.376 0 0 1-.046-.216 2.502 2.502 0 0 0-3.905-1.617 2.333 2.333 0 0 1-.184.119l-13.34 7.854a2.55 2.55 0 0 1-3.096-.394l-8.095-8.095a2.55 2.55 0 0 1-.394-3.095l7.856-13.344c.037-.062.075-.122.116-.18a2.498 2.498 0 0 0-1.624-3.909 2.332 2.332 0 0 1-.207-.045l-14.987-3.879a2.548 2.548 0 0 1-1.91-2.467v-11.448c0-1.162.785-2.176 1.91-2.467l14.989-3.88c.071-.019.143-.034.214-.046a2.502 2.502 0 0 0 1.617-3.905 2.333 2.333 0 0 1-.119-.184l-7.854-13.341a2.55 2.55 0 0 1 .394-3.095l8.095-8.095a2.551 2.551 0 0 1 3.095-.394l13.344 7.856c.061.036.119.073.175.113a2.5 2.5 0 0 0 3.911-1.613c.013-.071.027-.143.046-.216l3.88-14.987a2.548 2.548 0 0 1 2.467-1.91h11.448c1.162 0 2.176.786 2.467 1.91l3.88 14.989c.019.071.033.143.046.214a2.5 2.5 0 0 0 3.907 1.615c.058-.041.117-.079.183-.118l13.341-7.854a2.55 2.55 0 0 1 3.095.394l8.095 8.096a2.55 2.55 0 0 1 .394 3.095l-7.856 13.345a2.168 2.168 0 0 1-.113.174 2.497 2.497 0 0 0 1.613 3.911c.071.013.143.028.216.047l14.987 3.88a2.548 2.548 0 0 1 1.91 2.467v11.446h-.002z"/>
            <path fill="#3774E4" d="M180.818 221.929c-11.588 0-21.015 9.428-21.015 21.016 0 11.588 9.427 21.015 21.015 21.015 11.588 0 21.015-9.427 21.015-21.015 0-11.588-9.427-21.016-21.015-21.016zm0 37.031c-8.831 0-16.015-7.185-16.015-16.015 0-8.831 7.185-16.016 16.015-16.016 8.83 0 16.015 7.185 16.015 16.016 0 8.83-7.185 16.015-16.015 16.015zM230.752 142.837c-8.399 0-15.233 6.833-15.233 15.233s6.833 15.233 15.233 15.233 15.233-6.833 15.233-15.233c0-8.399-6.833-15.233-15.233-15.233zm0 25.467c-5.643 0-10.233-4.591-10.233-10.233s4.59-10.233 10.233-10.233c5.643 0 10.233 4.59 10.233 10.233 0 5.643-4.59 10.233-10.233 10.233z"/>
            <path fill="#528CF4" d="M266.18 148.353l-7.364-1.906 3.859-6.556a5.971 5.971 0 0 0-.923-7.252l-5.567-5.568a5.97 5.97 0 0 0-7.252-.923l-6.556 3.86-1.906-7.365a5.973 5.973 0 0 0-5.782-4.476h-7.873a5.97 5.97 0 0 0-5.781 4.476l-1.906 7.365-6.556-3.86a5.973 5.973 0 0 0-7.252.924l-5.567 5.567a5.969 5.969 0 0 0-.923 7.252l3.859 6.555-7.365 1.907a5.972 5.972 0 0 0-4.475 5.781v7.873c0 2.722 1.84 5.1 4.475 5.782l7.365 1.906-3.859 6.555a5.973 5.973 0 0 0 .923 7.253l5.567 5.566a5.972 5.972 0 0 0 7.253.924l6.555-3.859 1.907 7.365a5.973 5.973 0 0 0 5.781 4.475h7.873a5.973 5.973 0 0 0 5.782-4.475l1.906-7.365 6.556 3.859a5.97 5.97 0 0 0 7.252-.924l5.567-5.567a5.972 5.972 0 0 0 .924-7.253l-3.859-6.555 7.364-1.906a5.973 5.973 0 0 0 4.476-5.782v-7.873a5.976 5.976 0 0 0-4.478-5.78zm-.524 13.654c0 .443-.299.83-.729.941l-10.384 2.685c-.847.143-1.536.749-1.866 1.541-.331.792-.207 1.737.288 2.439l5.401 9.174a.973.973 0 0 1-.15 1.181l-5.567 5.567a.972.972 0 0 1-1.181.15l-9.25-5.451c-.702-.494-1.618-.555-2.409-.225-.792.331-1.368 1.083-1.512 1.929l-2.668 10.307a.971.971 0 0 1-.941.728h-7.873a.97.97 0 0 1-.94-.728l-2.688-10.396c-.147-.844-.753-1.529-1.544-1.856a2.438 2.438 0 0 0-.933-.182c-.53 0-1.062.164-1.5.472l-9.174 5.401a.972.972 0 0 1-1.181-.151l-5.567-5.566a.973.973 0 0 1-.15-1.181l5.445-9.242c.498-.702.562-1.618.232-2.413-.33-.794-1.083-1.373-1.931-1.516l-10.307-2.668a.971.971 0 0 1-.728-.941v-7.873a.97.97 0 0 1 .728-.94l10.384-2.686c.847-.143 1.536-.749 1.866-1.541.331-.792.207-1.737-.288-2.439l-5.401-9.175a.971.971 0 0 1 .15-1.18l5.567-5.567a.973.973 0 0 1 1.18-.15l9.242 5.445c.7.497 1.615.556 2.408.229.793-.327 1.374-1.082 1.521-1.927l2.668-10.307a.972.972 0 0 1 .94-.729h7.873c.443 0 .83.3.941.729l2.685 10.384c.144.848.747 1.542 1.542 1.871.794.33 1.737.205 2.438-.292l9.175-5.402a.974.974 0 0 1 1.18.15l5.567 5.568a.971.971 0 0 1 .15 1.18l-5.451 9.25c-.494.702-.555 1.617-.225 2.409.331.792 1.083 1.368 1.929 1.512l10.307 2.668a.972.972 0 0 1 .729.94v7.874h.002z"/>
        </g>
        <path fill="#FFF" d="M286 273l.004.25a8 8 0 0 0 7.747 7.746L294 281a8 8 0 0 0-8 8l-.004-.25a8 8 0 0 0-7.747-7.746L278 281l.25-.004A8 8 0 0 0 286 273zM126 146l.004.25a8 8 0 0 0 7.747 7.746L134 154a8 8 0 0 0-8 8l-.004-.25a8 8 0 0 0-7.747-7.746L118 154l.25-.004A8 8 0 0 0 126 146zM310 163a6 6 0 0 0 5.775 5.996L316 169a6 6 0 0 0-6 6 6 6 0 0 0-5.775-5.996L304 169a6 6 0 0 0 5.996-5.775L310 163zM101 276a5 5 0 0 0 4.783 4.995L106 281a5 5 0 0 0-5 5 5 5 0 0 0-4.783-4.995L96 281a5 5 0 0 0 4.995-4.783L101 276z"/>
        <path fill="#E4C95C" d="M201 83a5 5 0 0 0 4.783 4.995L206 88a5 5 0 0 0-5 5 5 5 0 0 0-4.783-4.995L196 88a5 5 0 0 0 4.995-4.783L201 83z"/>
        <path fill="#3978E9" fill-rule="nonzero" d="M163 325.196h93c1.657 0 3-1.12 3-2.5s-1.343-2.5-3-2.5h-93c-1.657 0-3 1.12-3 2.5s1.343 2.5 3 2.5zM191.916 338.196h18.168c1.61 0 2.916-1.12 2.916-2.5s-1.306-2.5-2.916-2.5h-18.168c-1.61 0-2.916 1.12-2.916 2.5s1.306 2.5 2.916 2.5zM222 338.196h4.996c1.657 0 3-1.12 3-2.5s-1.343-2.5-3-2.5H222c-1.657 0-3 1.12-3 2.5s1.343 2.5 3 2.5z" opacity=".494"/>
    </g>
</svg>
