<svg xmlns="http://www.w3.org/2000/svg" width="420" height="420" viewBox="0 0 420 420">
    <g fill="none" fill-rule="evenodd">
        <path fill="#01379E" fill-rule="nonzero" d="M142.064 28.14L28.14 142.065c-37.52 37.52-37.52 98.35 0 135.87L142.064 391.86c37.52 37.52 98.352 37.52 135.871 0L391.86 277.935c36.383-36.382 37.485-94.685 3.308-132.397l-3.308-3.473L277.935 28.14c-37.52-37.52-98.35-37.52-135.87 0z"/>
        <g fill-rule="nonzero">
            <path fill="#002C7C" d="M213.953 261.066c-.027.027-.054.054-.082.054-.41.191-.793.383-1.204.547-.027 0-.055.027-.082.027a8.732 8.732 0 0 1-2.571.41c-.93 0-1.805-.164-2.626-.437a16.856 16.856 0 0 1-1.012-.465c-.082-.027-.137-.055-.219-.082-.027 0-.055-.027-.082-.054-31.895-15.565-52.301-48.006-52.301-83.759v15.888c0 35.752 20.406 68.194 52.301 83.758.027.027.055.054.082.054.082.027.137.055.219.082.328.164.684.328 1.012.465.82.273 1.696.437 2.626.437.903 0 1.778-.164 2.571-.41.027 0 .055-.027.082-.027.411-.165.793-.356 1.204-.548.028 0 .055-.027.082-.054 31.895-15.565 52.301-48.006 52.301-83.758v-15.887c0 35.752-20.406 68.194-52.301 83.759z"/>
            <path fill="#002C7C" d="M213.953 288.462c-.027.028-.054.055-.082.055-.41.192-.793.383-1.204.547a8.412 8.412 0 0 1-2.653.438 8.25 8.25 0 0 1-2.626-.438 23.273 23.273 0 0 1-1.231-.547c-.027 0-.055-.027-.082-.055-45.681-21.555-75.032-67.591-75.032-118.333v16.282c0 50.742 29.351 96.779 75.032 118.334.027.028.055.055.082.055.411.192.821.383 1.231.547.82.274 1.696.438 2.626.438.93 0 1.833-.164 2.653-.438.411-.164.793-.355 1.204-.547.028 0 .055-.027.082-.055 45.681-21.555 75.005-67.591 75.005-118.334v-16.282c0 50.742-29.324 96.779-75.005 118.333z"/>
            <path fill="#FF921A" d="M220.832 192.522h-3.848c5.428-2.796 8.963-8.749 8.179-15.433-.816-6.954-6.453-12.551-13.411-13.325-9.218-1.025-17.022 6.163-17.022 15.173 0 5.918 3.366 11.049 8.288 13.584h-3.848c-8.924 0-16.159 7.235-16.159 16.159v23.125c0 1.056.856 1.912 1.912 1.912h50.157a1.912 1.912 0 0 0 1.912-1.912V208.68c-.001-8.923-7.236-16.158-16.16-16.158z"/>
            <path fill="#3978E9" d="M285.874 134.651l-71.87-22.488a13.567 13.567 0 0 0-8.019.003l-71.86 22.485c-3.287 1.029-5.583 4.159-5.583 7.61v44.149c0 51.261 29.92 98.53 76.251 120.493.148.094.296.167.44.223.41.19.82.378 1.23.542a10.785 10.785 0 0 0 3.551.615 10.833 10.833 0 0 0 3.577-.615c.36-.143.701-.303 1.051-.469l.286-.135-.004-.008c.068-.031.136-.065.201-.102 46.377-21.932 76.333-69.234 76.333-120.544v-44.148c0-3.452-2.296-6.581-5.584-7.611zm.585 51.76c0 49.422-28.88 94.983-73.572 116.073-.08.037-.157.079-.232.124l-.158.075c-.229.109-.453.217-.688.313a5.679 5.679 0 0 1-3.562 0 19.65 19.65 0 0 1-.874-.389 2.825 2.825 0 0 0-.23-.124c-44.71-21.097-73.599-66.658-73.599-116.073v-44.148c0-1.289.854-2.456 2.076-2.839l71.848-22.482a8.577 8.577 0 0 1 5.056-.003l71.858 22.485a2.995 2.995 0 0 1 2.077 2.839v44.149zm-8.528-42.324l-12.128 9.376a5.366 5.366 0 0 0-.745-.294l-52.544-16.423V122.5a2.5 2.5 0 1 0-5 0v14.237l-52.565 16.43a5.252 5.252 0 0 0-.76.302l-12.135-9.382a2.5 2.5 0 0 0-3.058 3.956l12.314 9.52a5.485 5.485 0 0 0-.035.618v35.014a95.62 95.62 0 0 0 14.571 50.775 95.55 95.55 0 0 0 39.037 35.182c.133.075.273.14.417.193l.036.018-.002.004.052.021c.343.168.706.334 1.044.475.056.023.112.044.169.063.304.102.61.189.918.264v11.31a2.5 2.5 0 1 0 5 0v-11.308c.271-.064.542-.138.813-.223v-.001l.102-.032c.056-.018.11-.038.165-.06.358-.143.697-.302 1.046-.468l.288-.136-.004-.008c.075-.034.149-.071.221-.112a95.557 95.557 0 0 0 39.039-35.183 95.619 95.619 0 0 0 14.57-50.775v-35.013c0-.219-.013-.435-.039-.648l12.275-9.49a2.5 2.5 0 0 0 .448-3.507 2.505 2.505 0 0 0-3.51-.449zm-14.177 49.108c0 34.428-19.979 66.423-50.898 81.512a2.265 2.265 0 0 0-.199.109l-.164.077c-.229.109-.453.217-.687.314a6.174 6.174 0 0 1-1.774.287h-.045a5.646 5.646 0 0 1-1.724-.283 13.236 13.236 0 0 1-.767-.356 1.947 1.947 0 0 0-.249-.109l-.076-.039c-30.918-15.088-50.897-47.083-50.897-81.512v-35.014c0-.037.007-.072.019-.104.02-.028.038-.057.056-.085a.22.22 0 0 1 .085-.05l52.672-16.464a3.037 3.037 0 0 1 1.776-.003l52.689 16.469a.258.258 0 0 1 .048.021c.041.067.085.132.133.195a.075.075 0 0 1 .002.021v35.014z"/>
        </g>
        <path fill="#3978E9" fill-rule="nonzero" d="M162 326h93c1.657 0 3-1.12 3-2.5s-1.343-2.5-3-2.5h-93c-1.657 0-3 1.12-3 2.5s1.343 2.5 3 2.5zM190.916 339h18.168c1.61 0 2.916-1.12 2.916-2.5s-1.306-2.5-2.916-2.5h-18.168c-1.61 0-2.916 1.12-2.916 2.5s1.306 2.5 2.916 2.5zM221 339h4.996c1.657 0 3-1.12 3-2.5s-1.343-2.5-3-2.5H221c-1.657 0-3 1.12-3 2.5s1.343 2.5 3 2.5z" opacity=".494"/>
        <path fill="#FFF" d="M329 140l.004.25a8 8 0 0 0 7.747 7.746L337 148a8 8 0 0 0-8 8l-.004-.25a8 8 0 0 0-7.747-7.746L321 148l.25-.004A8 8 0 0 0 329 140zM116 265l.004.25a8 8 0 0 0 7.747 7.746L124 273a8 8 0 0 0-8 8l-.004-.25a8 8 0 0 0-7.747-7.746L108 273l.25-.004A8 8 0 0 0 116 265zM319 279a6 6 0 0 0 5.775 5.996L325 285a6 6 0 0 0-6 6 6 6 0 0 0-5.775-5.996L313 285a6 6 0 0 0 5.996-5.775L319 279zM89 146a5 5 0 0 0 4.783 4.995L94 151a5 5 0 0 0-5 5 5 5 0 0 0-4.783-4.995L84 151a5 5 0 0 0 4.995-4.783L89 146z"/>
        <path fill="#E4C95C" d="M251 78a5 5 0 0 0 4.783 4.995L256 83a5 5 0 0 0-5 5 5 5 0 0 0-4.783-4.995L246 83a5 5 0 0 0 4.995-4.783L251 78z"/>
    </g>
</svg>
