<svg xmlns="http://www.w3.org/2000/svg" width="96" height="96" viewBox="0 0 96 96">
    <g fill="none" fill-rule="nonzero" transform="translate(-16 -16)">
        <rect width="127" height="127" x=".5" y=".5" stroke="#0643B8" rx="33"/>
        <path fill="#002C7C" d="M65.482 84.15c-.01.01-.02.02-.03.02-.154.072-.298.144-.452.205-.01 0-.02.01-.03.01a3.275 3.275 0 0 1-.965.154c-.348 0-.677-.062-.984-.164a6.321 6.321 0 0 1-.38-.174c-.03-.01-.051-.02-.082-.031-.01 0-.02-.01-.03-.02a34.945 34.945 0 0 1-19.614-31.41v5.958a34.944 34.944 0 0 0 19.613 31.41c.01.01.02.02.03.02.032.01.052.02.083.03.123.062.257.123.38.175.307.102.636.164.984.164.339 0 .667-.062.964-.154.01 0 .021-.01.031-.01.154-.062.297-.134.452-.206.01 0 .02-.01.03-.02a34.945 34.945 0 0 0 19.613-31.41V52.74a34.945 34.945 0 0 1-19.613 31.41z"/>
        <path fill="#002C7C" d="M65.482 94.423c-.01.01-.02.02-.03.02-.154.073-.298.145-.452.206a3.155 3.155 0 0 1-.995.164c-.349 0-.677-.061-.985-.164a8.728 8.728 0 0 1-.461-.205c-.01 0-.02-.01-.03-.02C45.397 86.34 34.39 69.076 34.39 50.047v6.106c0 19.028 11.007 36.292 28.137 44.375.01.01.02.021.03.021.155.072.309.144.462.205.308.103.636.164.985.164s.688-.061.995-.164c.154-.061.297-.133.452-.205.01 0 .02-.01.03-.02A49.073 49.073 0 0 0 93.61 56.153v-6.106a49.072 49.072 0 0 1-28.127 44.375z"/>
        <path fill="#FF921A" d="M68.062 58.446h-1.443a5.729 5.729 0 0 0 3.067-5.788c-.306-2.607-2.42-4.706-5.029-4.996a5.728 5.728 0 0 0-3.275 10.783h-1.443a6.06 6.06 0 0 0-6.06 6.06v8.672c0 .396.321.717.717.717h18.809a.717.717 0 0 0 .717-.717v-8.672a6.06 6.06 0 0 0-6.06-6.06z"/>
        <path fill="#3978E9" d="M92.453 36.744l-26.951-8.433a5.088 5.088 0 0 0-3.008.001l-26.947 8.432a3.014 3.014 0 0 0-2.094 2.854v16.556c0 19.223 11.22 36.948 28.594 45.185a.95.95 0 0 0 .165.083c.154.071.308.142.462.203a4.045 4.045 0 0 0 1.332.23 4.062 4.062 0 0 0 1.34-.23c.136-.053.263-.113.395-.175l.107-.051-.002-.003a.947.947 0 0 0 .076-.038c17.391-8.225 28.625-25.963 28.625-45.204V39.598a3.015 3.015 0 0 0-2.094-2.854zm.22 19.41c0 18.533-10.83 35.619-27.59 43.527a.92.92 0 0 0-.087.047l-.06.028c-.086.041-.17.082-.258.118a2.13 2.13 0 0 1-1.335 0 7.369 7.369 0 0 1-.328-.146 1.06 1.06 0 0 0-.086-.047c-16.767-7.911-27.6-24.997-27.6-43.527V39.598c0-.483.32-.92.778-1.064l26.943-8.431a3.217 3.217 0 0 1 1.896-.001l26.947 8.432c.459.143.78.58.78 1.064v16.556zm-3.199-15.871l-4.548 3.516a2.012 2.012 0 0 0-.28-.11l-19.703-6.16v-5.342a.937.937 0 1 0-1.875 0v5.34l-19.712 6.16a1.97 1.97 0 0 0-.285.114l-4.55-3.518a.938.938 0 0 0-1.147 1.483l4.617 3.57a2.057 2.057 0 0 0-.013.232v13.13c0 6.744 1.89 13.328 5.464 19.04a35.831 35.831 0 0 0 14.64 13.194c.049.028.102.053.156.072l.013.007v.002l.019.008a7.308 7.308 0 0 0 .455.201c.114.039.228.071.344.1v4.24a.937.937 0 1 0 1.875 0v-4.24c.102-.024.203-.052.305-.084l.038-.012a6.655 6.655 0 0 0 .454-.198l.108-.051-.001-.003A35.834 35.834 0 0 0 80.57 77.738a35.857 35.857 0 0 0 5.464-19.04v-13.13c0-.082-.005-.163-.015-.243l4.603-3.559a.937.937 0 1 0-1.148-1.483zm-5.316 18.415c0 12.91-7.492 24.909-19.087 30.567a.85.85 0 0 0-.075.041l-.061.029c-.086.04-.17.081-.258.118-.232.07-.45.106-.665.107h-.017c-.217 0-.429-.036-.646-.106a4.964 4.964 0 0 1-.288-.133.73.73 0 0 0-.093-.041l-.029-.015C51.345 83.607 43.853 71.61 43.853 58.698v-13.13a.11.11 0 0 1 .007-.04l.02-.031a.083.083 0 0 1 .033-.019l19.752-6.174c.22-.067.45-.067.666 0l19.758 6.175a.097.097 0 0 1 .018.008c.016.025.032.05.05.073v13.138z"/>
    </g>
</svg>
