<svg xmlns="http://www.w3.org/2000/svg" width="26" height="26" viewBox="0 0 26 26">
    <g fill="none" fill-rule="evenodd">
        <rect width="26" height="26" fill="#F7931A" rx="13"/>
        <path fill="#FFF" fill-rule="nonzero" d="M18.168 11.732c.256-1.707-1.051-2.625-2.84-3.237l.58-2.313-1.416-.35-.565 2.251c-.372-.092-.754-.18-1.134-.265l.568-2.267-1.415-.351-.58 2.312c-.309-.07-.611-.139-.905-.211l.001-.007-1.953-.485-.377 1.503s1.051.24 1.03.255c.573.142.677.52.66.819L9.16 12.02c.04.01.091.025.148.047l-.15-.037-.926 3.691c-.07.174-.248.434-.65.335.015.02-1.029-.256-1.029-.256l-.703 1.612 1.844.457c.342.086.678.175 1.009.26l-.586 2.339 1.414.35.581-2.314c.386.105.762.2 1.129.291l-.579 2.304 1.416.351.587-2.335c2.415.454 4.231.271 4.995-1.9.616-1.748-.03-2.757-1.301-3.415.925-.213 1.622-.818 1.808-2.068zm-3.237 4.511c-.438 1.748-3.399.804-4.36.566l.779-3.099c.96.238 4.038.71 3.582 2.533zm.438-4.536c-.4 1.59-2.864.783-3.664.584l.705-2.81c.8.198 3.375.567 2.959 2.226z"/>
    </g>
</svg>
