<svg xmlns="http://www.w3.org/2000/svg" width="25" height="12" viewBox="0 0 25 12">
    <path fill="#474E5D" fill-rule="nonzero" d="M.155 11V1.047H3.41c.51 0 .966.051 1.367.154.401.102.742.262 1.022.478.28.217.495.491.643.824.148.333.222.731.222 1.196 0 .465-.132.876-.396 1.234a2.57 2.57 0 0 1-1.08.83c.278.078.525.192.741.342a2.254 2.254 0 0 1 .885 1.224c.078.255.117.522.117.8 0 .465-.079.876-.236 1.234-.157.358-.38.658-.667.902a2.87 2.87 0 0 1-1.039.55A4.652 4.652 0 0 1 3.635 11H.155zm1.313-4.655v3.582h2.167c.314 0 .593-.042.837-.127a1.77 1.77 0 0 0 .619-.355c.168-.153.297-.34.386-.56.089-.222.133-.469.133-.742 0-.274-.036-.522-.109-.746a1.387 1.387 0 0 0-.345-.567 1.578 1.578 0 0 0-.598-.359 2.62 2.62 0 0 0-.862-.126H1.468zm0-1.053H3.45c.283 0 .54-.036.773-.11a1.76 1.76 0 0 0 .598-.314c.166-.137.295-.304.386-.502.091-.199.137-.423.137-.674 0-.546-.16-.944-.479-1.192-.319-.249-.804-.373-1.456-.373H1.468v3.165zm14.28-3.165h-3.2V11h-1.305V2.127H8.051v-1.08h7.697v1.08zm8.798 5.715c-.055.47-.17.906-.345 1.309a3.164 3.164 0 0 1-.728 1.046c-.31.294-.688.524-1.135.69-.447.167-.969.25-1.566.25-.587 0-1.12-.11-1.6-.328a3.472 3.472 0 0 1-1.226-.934 4.3 4.3 0 0 1-.786-1.452 6.079 6.079 0 0 1-.277-1.894v-.998c0-.697.093-1.33.28-1.897a4.242 4.242 0 0 1 .8-1.456 3.55 3.55 0 0 1 1.261-.936A4.036 4.036 0 0 1 20.89.91c.56 0 1.057.082 1.49.246.433.164.8.393 1.104.687.303.294.543.645.721 1.053.178.408.292.858.342 1.35h-1.32a4.468 4.468 0 0 0-.232-.936 2.107 2.107 0 0 0-.434-.711 1.824 1.824 0 0 0-.687-.452 2.753 2.753 0 0 0-.984-.157c-.442 0-.83.086-1.166.257a2.36 2.36 0 0 0-.84.717 3.26 3.26 0 0 0-.51 1.115c-.114.435-.17.914-.17 1.439v1.011c0 .488.05.946.153 1.374.102.429.259.804.468 1.125.21.321.476.574.8.759.324.184.706.276 1.148.276.42 0 .773-.05 1.06-.15.287-.1.525-.245.714-.434.19-.19.336-.422.441-.697.105-.276.185-.59.24-.94h1.319z" opacity=".5"/>
</svg>
