<?xml version="1.0" encoding="UTF-8"?>
<!DOCTYPE svg PUBLIC "-//W3C//DTD SVG 1.1//EN" "http://www.w3.org/Graphics/SVG/1.1/DTD/svg11.dtd">
<!-- Creator: CorelDRAW 2018 (64-Bit) -->
<svg xmlns="http://www.w3.org/2000/svg" xml:space="preserve" width="14.5307mm" height="39.7543mm" version="1.1" style="shape-rendering:geometricPrecision; text-rendering:geometricPrecision; image-rendering:optimizeQuality; fill-rule:evenodd; clip-rule:evenodd"
viewBox="0 0 97.29 266.17"
 xmlns:xlink="http://www.w3.org/1999/xlink">
 <defs>
  <style type="text/css">
   <![CDATA[
    .fil1 {fill:#0A43AE}
    .fil2 {fill:#2361D3}
    .fil0 {fill:#0A43AE;fill-rule:nonzero}
   ]]>
  </style>
 </defs>
 <g id="Layer_x0020_1">
  <metadata id="CorelCorpID_0Corel-Layer"/>
  <path class="fil0" d="M79.44 0l8.5 0c5.16,0 9.35,4.19 9.35,9.35l0 8.5c0,5.16 -4.19,9.35 -9.35,9.35l-8.5 0c-5.16,0 -9.35,-4.19 -9.35,-9.35l0 -8.5c0,-5.16 4.19,-9.35 9.35,-9.35l-0 0z"/>
  <g id="_1710663673360">
   <g>
    <path class="fil1" d="M24.77 194.1l22.52 0c13.68,0 24.77,11.09 24.77,24.77l0 22.52c0,13.68 -11.09,24.77 -24.77,24.77l-22.52 0c-13.68,0 -24.77,-11.09 -24.77,-24.77l0 -22.52c0,-13.68 11.09,-24.77 24.77,-24.77z"/>
    <path class="fil2" d="M59.68 186.22l11.26 0c6.84,0 12.39,5.55 12.39,12.39l0 11.26c0,6.84 -5.55,12.39 -12.39,12.39l-11.26 0c-6.84,0 -12.39,-5.55 -12.39,-12.39l0 -11.26c0,-6.84 5.55,-12.39 12.39,-12.39z"/>
   </g>
  </g>
 </g>
</svg>
