<?xml version="1.0" encoding="UTF-8"?>
<!DOCTYPE svg PUBLIC "-//W3C//DTD SVG 1.1//EN" "http://www.w3.org/Graphics/SVG/1.1/DTD/svg11.dtd">
<!-- Creator: CorelDRAW 2018 (64-Bit) -->
<svg xmlns="http://www.w3.org/2000/svg" xml:space="preserve" width="14.5972mm" height="44.8326mm" version="1.1" style="shape-rendering:geometricPrecision; text-rendering:geometricPrecision; image-rendering:optimizeQuality; fill-rule:evenodd; clip-rule:evenodd"
viewBox="0 0 152.8 469.31"
 xmlns:xlink="http://www.w3.org/1999/xlink">
 <defs>
  <style type="text/css">
   <![CDATA[
    .fil0 {fill:#0A43AE}
    .fil1 {fill:#2361D3}
    .fil2 {fill:#0A43AE;fill-rule:nonzero}
   ]]>
  </style>
 </defs>
 <g id="Layer_x0020_1">
  <metadata id="CorelCorpID_0Corel-Layer"/>
  <g id="_1710663629456">
   <g>
    <path class="fil0" d="M78.4 0l35.43 0c21.52,0 38.97,17.45 38.97,38.97l0 35.43c0,21.52 -17.45,38.97 -38.97,38.97l-35.43 0c-21.52,0 -38.97,-17.45 -38.97,-38.97l0 -35.43c0,-21.52 17.45,-38.97 38.97,-38.97z"/>
    <path class="fil1" d="M41.2 69.09l17.71 0c10.76,0 19.49,8.72 19.49,19.49l0 17.71c0,10.76 -8.72,19.49 -19.49,19.49l-17.71 0c-10.76,0 -19.49,-8.73 -19.49,-19.49l0 -17.71c0,-10.76 8.73,-19.49 19.49,-19.49l0 0z"/>
   </g>
  </g>
  <path class="fil2" d="M14.72 426.49l13.38 0c8.13,0 14.72,6.59 14.72,14.72l0 13.38c0,8.13 -6.59,14.72 -14.72,14.72l-13.38 0c-8.13,-0 -14.72,-6.59 -14.72,-14.72l0 -13.38c0,-8.13 6.59,-14.72 14.72,-14.72l-0 0z"/>
 </g>
</svg>
