<svg xmlns="http://www.w3.org/2000/svg" width="20" height="20" viewBox="0 0 20 20">
    <path fill="#474E5D" fill-rule="nonzero" d="M.143 9.485C2.168 6.115 5.896 4 10 4c4.104 0 7.832 2.115 9.857 5.485a1 1 0 0 1 0 1.03C17.832 13.885 14.104 16 10 16c-4.104 0-7.832-2.115-9.857-5.485a1 1 0 0 1 0-1.03zM10 14c3.185 0 6.086-1.531 7.809-4C16.086 7.531 13.185 6 10 6c-3.185 0-6.086 1.531-7.809 4 1.723 2.469 4.624 4 7.809 4zm-3-4a1 1 0 1 1 2 0 1 1 0 1 0 1-1 1 1 0 1 1 0-2 3 3 0 1 1-3 3z" opacity=".3"/>
</svg>
