<svg xmlns="http://www.w3.org/2000/svg" width="128" height="128" viewBox="0 0 128 128">
    <g fill="none" fill-rule="evenodd">
        <g fill-rule="nonzero" transform="translate(14.25 4)">
            <path fill="#002C7C" d="M36.498 71.295a32.014 32.014 0 0 1 .618-6.898c-1.3.162-2.625.245-3.969.245-16.442 0-29.972-12.456-31.676-28.446a32.208 32.208 0 0 0-.185 3.413c0 9.154 3.867 17.401 10.05 23.213l-9.366 7.88 13.274-4.737v-.001a31.712 31.712 0 0 0 17.904 5.505c1.131 0 2.249-.059 3.35-.174z"/>
            <path fill="#FF921A" d="M32.708 49.586c-1.354 0-2.185.601-2.643 1.105-.612.672-.936 1.524-.936 2.465 0 .941.333 1.79.963 2.452.457.481 1.283 1.055 2.616 1.055 1.297 0 2.123-.557 2.587-1.024a3.45 3.45 0 0 0 1.013-2.483c0-.956-.34-1.818-.983-2.495-.67-.703-1.576-1.075-2.617-1.075zM40.217 24.486c-1.72-1.733-4.04-2.613-6.896-2.613-2.762 0-5.095.842-6.933 2.502-1.887 1.706-2.86 3.977-2.894 6.75v.002a1.905 1.905 0 0 0 1.905 1.927h2.43a1.905 1.905 0 0 0 1.904-1.872c.019-1.063.325-1.857.936-2.427.641-.596 1.508-.886 2.652-.886 1.076 0 1.858.278 2.392.851.57.613.847 1.498.847 2.709 0 .641-.076 1.204-.226 1.674-.15.471-.366.908-.64 1.297-.221.313-.813 1.01-2.383 2.555-1.544 1.517-2.543 2.852-3.055 4.08-.507 1.214-.769 2.711-.801 4.576a1.905 1.905 0 0 0 1.905 1.938h2.43a1.904 1.904 0 0 0 1.905-1.904v-.001c0-1.913.533-3.252 1.69-4.227 2.049-1.882 3.422-3.525 4.2-5.023a10.764 10.764 0 0 0 1.215-5.007c0-2.849-.869-5.17-2.583-6.9z"/>
            <path fill="#002C7C" d="M100.213 70.701a32.2 32.2 0 0 0-.184-3.413c-1.704 15.99-15.234 28.446-31.676 28.446S38.38 83.278 36.677 67.287a32.2 32.2 0 0 0-.184 3.414c0 17.596 14.264 31.86 31.86 31.86 6.638 0 12.8-2.032 17.903-5.506v.001l13.274 4.737-9.367-7.88c6.183-5.81 10.05-14.057 10.05-23.212z"/>
            <path fill="#FF921A" d="M68.166 74.489a3.917 3.917 0 0 1-3.916-3.917v-15.5a3.917 3.917 0 0 1 7.833 0v15.5a3.916 3.916 0 0 1-3.916 3.916z"/>
            <circle cx="68.199" cy="82.039" r="3.917" fill="#FF921A" transform="rotate(-76.645 68.199 82.04)"/>
            <g fill="#3978E9">
                <path d="M33.147 9c6.453 0 12.624 1.983 17.846 5.736a1.25 1.25 0 0 0 1.459-2.03C46.802 8.646 40.127 6.5 33.147 6.5 14.89 6.5.037 21.352.037 39.61a32.943 32.943 0 0 0 5.291 17.96L.793 70.28a1.25 1.25 0 0 0 1.597 1.597l12.684-4.525a33.026 33.026 0 0 0 15.848 5.293l.084.002a1.25 1.25 0 0 0 .081-2.498 30.528 30.528 0 0 1-15.139-5.219 1.252 1.252 0 0 0-1.123-.144l-10.791 3.85 3.859-10.816a1.25 1.25 0 0 0-.141-1.119 30.453 30.453 0 0 1-5.215-17.093c0-16.878 13.732-30.61 30.61-30.61z"/>
                <path d="M96.172 88.662a32.945 32.945 0 0 0 5.291-17.961c0-18.257-14.853-33.11-33.11-33.11-18.257 0-33.11 14.853-33.11 33.11 0 18.257 14.853 33.11 33.11 33.11a32.934 32.934 0 0 0 18.074-5.367l12.683 4.526a1.248 1.248 0 0 0 1.597-1.597L96.172 88.66zm-9.496 7.217a1.25 1.25 0 0 0-1.124.144 30.446 30.446 0 0 1-17.199 5.288c-16.878 0-30.61-13.731-30.61-30.61 0-16.878 13.731-30.61 30.61-30.61 16.879 0 30.61 13.732 30.61 30.61a30.453 30.453 0 0 1-5.214 17.094 1.25 1.25 0 0 0-.141 1.119l3.858 10.816-10.79-3.85zM51.117 20.892c.237.91.775 1.639 1.208 2.224a163.13 163.13 0 0 0 5.539 7.053c.238.287.474.578.709.868.363.448.726.895 1.098 1.334 1.263 1.728 3.13 2.719 5.131 2.719h6.951c3.653 0 6.626-3.325 6.626-7.411V9.297a3.23 3.23 0 0 0-3.997-3.133 3.414 3.414 0 0 0-4.29-2.726 3.613 3.613 0 0 0-3.59-3.249 3.611 3.611 0 0 0-3.16 1.869c-.472-.227-1-.354-1.557-.354a3.612 3.612 0 0 0-3.608 3.609v13.623l-.331-.328c-.46-.456-1.862-1.84-3.975-1.546-.799.112-1.486.418-1.988.886-.782.731-1.062 1.803-.766 2.944zm2.472-1.115c.058-.053.233-.184.629-.239.081-.012.161-.018.24-.018.534 0 1.023.265 1.632.866.201.198.384.382.554.552.747.75 1.287 1.29 2.08 1.83a1.25 1.25 0 0 0 1.953-1.033V5.313a1.11 1.11 0 0 1 1.108-1.109 1.11 1.11 0 0 1 1.109 1.109v10.033a1.25 1.25 0 1 0 2.5 0V3.797a1.11 1.11 0 0 1 2.217 0v11.549a1.25 1.25 0 1 0 2.5 0V6.718a.91.91 0 0 1 1.816 0v8.629a1.25 1.25 0 1 0 2.5 0v-6.05a.726.726 0 0 1 1.451 0v18.381c0 2.709-1.85 4.912-4.124 4.912h-6.952c-1.203 0-2.345-.628-3.133-1.723a1.61 1.61 0 0 0-.062-.079c-.37-.436-.731-.88-1.091-1.325-.241-.297-.482-.594-.725-.888a160.939 160.939 0 0 1-5.455-6.944c-.337-.455-.683-.925-.799-1.367-.091-.353.009-.447.052-.487z"/>
            </g>
        </g>
        <path fill="#3978E9" fill-rule="nonzero" d="M41 121.5h46.5c.828 0 1.5-.56 1.5-1.25s-.672-1.25-1.5-1.25H41c-.828 0-1.5.56-1.5 1.25s.672 1.25 1.5 1.25zM55.458 128h9.084c.805 0 1.458-.56 1.458-1.25s-.653-1.25-1.458-1.25h-9.084c-.805 0-1.458.56-1.458 1.25s.653 1.25 1.458 1.25zM70.5 128h2.498c.828 0 1.5-.56 1.5-1.25s-.672-1.25-1.5-1.25H70.5c-.828 0-1.5.56-1.5 1.25s.672 1.25 1.5 1.25z" opacity=".494"/>
        <path fill="#FFF" d="M114.5 36.5l.005.2a4 4 0 0 0 3.789 3.795l.206.005a4 4 0 0 0-4 4l-.005-.2a4 4 0 0 0-3.789-3.795l-.206-.005.2-.005a4 4 0 0 0 3.8-3.995zM30.5 94.5l.005.2a4 4 0 0 0 3.789 3.795l.206.005a4 4 0 0 0-4 4l-.005-.2a4 4 0 0 0-3.789-3.795L26.5 98.5l.2-.005a4 4 0 0 0 3.8-3.995zM124 90.5l.005.2a4 4 0 0 0 3.789 3.795l.206.005a4 4 0 0 0-4 4l-.005-.2a4 4 0 0 0-3.789-3.795L120 94.5l.2-.005A4 4 0 0 0 124 90.5zM4.5 26.5l.005.2a4 4 0 0 0 3.789 3.795l.206.005a4 4 0 0 0-4 4l-.005-.2a4 4 0 0 0-3.789-3.795L.5 30.5l.2-.005A4 4 0 0 0 4.5 26.5z"/>
        <path fill="#E4C95C" d="M106 .5l.005.2a4 4 0 0 0 3.789 3.795L110 4.5a4 4 0 0 0-4 4l-.005-.2a4 4 0 0 0-3.789-3.795L102 4.5l.2-.005A4 4 0 0 0 106 .5z"/>
    </g>
</svg>
