<svg xmlns="http://www.w3.org/2000/svg" width="16" height="16" viewBox="0 0 16 16">
    <g fill="#FFF" fill-rule="evenodd">
        <path d="M8 .01C3.602.01.036 3.678.036 8.202c0 3.62 2.282 6.69 5.446 7.774.398.075.544-.178.544-.395 0-.195-.007-.84-.01-1.525-2.216.496-2.684-.966-2.684-.966-.362-.947-.884-1.199-.884-1.199-.723-.508.055-.498.055-.498.8.058 1.22.845 1.22.845.71 1.252 1.864.89 2.318.68.072-.53.278-.89.506-1.095-1.77-.207-3.629-.91-3.629-4.049 0-.894.311-1.625.82-2.198-.082-.207-.355-1.04.078-2.169 0 0 .669-.22 2.19.84A7.438 7.438 0 0 1 8 3.972a7.456 7.456 0 0 1 1.995.275c1.52-1.06 2.188-.84 2.188-.84.434 1.129.161 1.962.079 2.169.51.573.82 1.304.82 2.198 0 3.147-1.864 3.84-3.638 4.043.286.254.54.752.54 1.516 0 1.096-.009 1.979-.009 2.248 0 .219.144.474.548.394 3.162-1.085 5.442-4.154 5.442-7.773C15.965 3.678 12.399.01 8 .01z"/>
        <path fill-rule="nonzero" d="M3.052 11.772c-.017.04-.08.053-.136.025-.058-.026-.09-.082-.072-.123.017-.042.08-.053.137-.025.058.026.091.082.071.123zM3.375 12.142c-.038.037-.112.02-.163-.038-.052-.057-.062-.133-.023-.17.04-.036.11-.02.163.038.052.058.062.134.023.17zM3.689 12.614c-.049.035-.129.002-.178-.07-.049-.073-.049-.161 0-.196.05-.035.129-.003.18.069.048.074.048.161-.002.197zM4.119 13.07c-.044.05-.137.036-.205-.032-.07-.065-.089-.16-.045-.209.044-.05.138-.035.206.032.07.066.09.16.044.209zM4.712 13.335c-.019.064-.108.093-.199.065-.09-.028-.148-.103-.13-.167.018-.065.108-.095.2-.066.09.028.148.102.13.168zM5.364 13.383c.003.068-.074.124-.169.125-.095.003-.172-.052-.173-.119 0-.068.075-.123.17-.125.095-.002.172.053.172.12zM5.97 13.277c.012.066-.054.134-.148.152-.092.017-.178-.023-.19-.089-.01-.067.056-.135.148-.153.095-.016.179.023.19.09z"/>
    </g>
</svg>
