<svg xmlns="http://www.w3.org/2000/svg" width="121" height="128" viewBox="0 0 121 128">
    <g fill="none" fill-rule="evenodd" transform="translate(-68 -85)">
        <rect width="1138" height="298" x=".5" y=".5" fill-rule="nonzero" stroke="#0643B8" rx="33"/>
        <g fill-rule="nonzero">
            <path fill="#FF921A" d="M152.871 113.74h-48.159a2.92 2.92 0 1 1 0-5.841h48.159a2.92 2.92 0 1 1 0 5.841z"/>
            <path fill="#002C7C" d="M167.978 150.393l-37.839 37.839-8.047 2.832-1.958 5.566 13.612-4.791L171.585 154z"/>
            <g fill="#528CF4">
                <path d="M162.762 167.813c-.69 0-1.25.559-1.25 1.25v12.77h-13.075a1.25 1.25 0 1 0 0 2.5h14.325c.69 0 1.25-.559 1.25-1.25v-14.02c0-.691-.56-1.25-1.25-1.25zM121.688 183.084c0-.691-.56-1.25-1.25-1.25h-24.45V97.667h65.525v42.958a1.25 1.25 0 1 0 2.5 0V96.417c0-.69-.56-1.25-1.25-1.25H94.737c-.69 0-1.25.56-1.25 1.25v86.666c0 .691.56 1.25 1.25 1.25h25.7c.69 0 1.25-.56 1.25-1.25z"/>
                <path d="M116.347 122.695h-13.333a1.25 1.25 0 1 0 0 2.5h13.333a1.25 1.25 0 1 0 0-2.5zM154.514 122.695h-32.167a1.25 1.25 0 1 0 0 2.5h32.167a1.25 1.25 0 1 0 0-2.5zM154.514 131.195h-32.167a1.25 1.25 0 1 0 0 2.5h32.167a1.25 1.25 0 1 0 0-2.5zM155.764 140.945c0-.691-.56-1.25-1.25-1.25h-32.167a1.25 1.25 0 1 0 0 2.5h32.167c.69 0 1.25-.56 1.25-1.25zM116.347 151.362h-13.333a1.25 1.25 0 1 0 0 2.5h13.333a1.25 1.25 0 1 0 0-2.5zM149.931 152.612c0-.691-.559-1.25-1.25-1.25h-26.334a1.25 1.25 0 1 0 0 2.5h26.335c.69 0 1.25-.56 1.25-1.25zM141.58 161.112c0-.691-.56-1.25-1.25-1.25h-17.983a1.25 1.25 0 1 0 0 2.5h17.983c.69 0 1.25-.56 1.25-1.25zM122.347 168.362a1.25 1.25 0 1 0 0 2.5h9.483a1.25 1.25 0 1 0 0-2.5h-9.483zM172.469 153.116l-8.822-8.822c-.469-.47-1.299-.47-1.768 0l-7.579 7.579a.009.009 0 0 0-.002.002l-.002.002-30.255 30.255c-.065.065-.12.135-.168.21-.013.02-.022.043-.034.064a1.23 1.23 0 0 0-.083.172l-.011.023-4.79 13.613a1.25 1.25 0 0 0 1.594 1.594l13.612-4.79.024-.012c.06-.022.117-.052.173-.084.021-.011.043-.02.063-.033.074-.047.145-.102.21-.167l30.256-30.257h.001v-.002l7.581-7.58a1.25 1.25 0 0 0 0-1.767zm-38.722 36.955l-7.055-7.055 28.49-28.489 7.054 7.054-28.49 28.49zm-8.303-4.767l6.015 6.015-9.28 3.266 3.265-9.28zm38.56-25.49l-7.054-7.055 5.814-5.814 7.054 7.054-5.814 5.814z"/>
            </g>
        </g>
        <path fill="#3978E9" fill-rule="nonzero" d="M105 206.5h46.5c.828 0 1.5-.56 1.5-1.25s-.672-1.25-1.5-1.25H105c-.828 0-1.5.56-1.5 1.25s.672 1.25 1.5 1.25zM119.458 213h9.084c.805 0 1.458-.56 1.458-1.25s-.653-1.25-1.458-1.25h-9.084c-.805 0-1.458.56-1.458 1.25s.653 1.25 1.458 1.25zM134.5 213h2.498c.828 0 1.5-.56 1.5-1.25s-.672-1.25-1.5-1.25H134.5c-.828 0-1.5.56-1.5 1.25s.672 1.25 1.5 1.25z" opacity=".494"/>
        <path fill="#FFF" d="M184.5 113.5l.005.2a4 4 0 0 0 3.789 3.795l.206.005a4 4 0 0 0-4 4l-.005-.2a4 4 0 0 0-3.789-3.795l-.206-.005.2-.005a4 4 0 0 0 3.8-3.995zM82 176l.005.2a4 4 0 0 0 3.789 3.795L86 180a4 4 0 0 0-4 4l-.005-.2a4 4 0 0 0-3.789-3.795L78 180l.2-.005A4 4 0 0 0 82 176zM175 182l.005.2a4 4 0 0 0 3.789 3.795L179 186a4 4 0 0 0-4 4l-.005-.2a4 4 0 0 0-3.789-3.795L171 186l.2-.005A4 4 0 0 0 175 182zM72 115l.005.2a4 4 0 0 0 3.789 3.795L76 119a4 4 0 0 0-4 4l-.005-.2a4 4 0 0 0-3.789-3.795L68 119l.2-.005A4 4 0 0 0 72 115z"/>
        <path fill="#E4C95C" d="M149.5 85l.005.2a4 4 0 0 0 3.789 3.795l.206.005a4 4 0 0 0-4 4l-.005-.2a4 4 0 0 0-3.789-3.795L145.5 89l.2-.005A4 4 0 0 0 149.5 85z"/>
    </g>
</svg>
