<svg xmlns="http://www.w3.org/2000/svg" width="129" height="125" viewBox="0 0 129 125">
    <g fill="none" fill-rule="evenodd" transform="translate(-64 -88)">
        <rect width="1138" height="298" x=".5" y=".5" fill-rule="nonzero" stroke="#0643B8" rx="33"/>
        <g fill-rule="nonzero">
            <path fill="#002C7C" d="M86.666 163.584h79.667v4.494H86.667z"/>
            <path fill="#FF921A" d="M146.024 161.75H136.6a.976.976 0 0 1-.975-.975V126.6c0-.539.437-.975.975-.975h9.425c.539 0 .975.436.975.975v34.174a.976.976 0 0 1-.975.976zM128.938 129h-20.75a1.687 1.687 0 1 1 0-3.375h20.75a1.687 1.687 0 1 1 0 3.375z"/>
            <g fill="#528CF4">
                <path d="M171.75 136.375v33.453a1.25 1.25 0 1 0 2.5 0v-33.453a1.25 1.25 0 1 0-2.5 0zM80 171.077c.69 0 1.25-.559 1.25-1.25v-53c0-.689.56-1.25 1.25-1.25h65.875a1.25 1.25 0 1 0 0-2.5H82.5a3.754 3.754 0 0 0-3.75 3.75v53c0 .691.56 1.25 1.25 1.25z"/>
                <path d="M102.834 166.827v-45h45.541a1.25 1.25 0 1 0 0-2.5H86.666c-.69 0-1.25.56-1.25 1.25v47.5c0 .691.56 1.25 1.25 1.25h79.668c.69 0 1.25-.559 1.25-1.25v-31.702a1.25 1.25 0 1 0-2.5 0v30.453h-12.417v-29.203a1.25 1.25 0 1 0-2.5 0v29.203h-47.333zm-14.918-45h12.418v45H87.916v-45zM176.916 173.077H76.083a5.34 5.34 0 0 0-5.333 5.334 5.34 5.34 0 0 0 5.333 5.333h100.833a5.34 5.34 0 0 0 5.334-5.333 5.34 5.34 0 0 0-5.334-5.334zm0 8.167H76.083a2.836 2.836 0 0 1-2.833-2.833 2.837 2.837 0 0 1 2.833-2.834h100.833a2.837 2.837 0 0 1 2.834 2.834 2.836 2.836 0 0 1-2.834 2.833z"/>
                <path d="M108.5 135.75h9.5a1.25 1.25 0 1 0 0-2.5h-9.5a1.25 1.25 0 1 0 0 2.5zM108.5 143.327h18.041a1.25 1.25 0 1 0 0-2.5H108.5a1.25 1.25 0 1 0 0 2.5zM108.5 149.125h5.166a1.25 1.25 0 1 0 0-2.5H108.5a1.25 1.25 0 1 0 0 2.5zM131.334 147.875c0-.69-.56-1.25-1.25-1.25H118a1.25 1.25 0 1 0 0 2.5h12.084c.69 0 1.25-.56 1.25-1.25zM108.5 154.923h14.334a1.25 1.25 0 1 0 0-2.5H108.5a1.25 1.25 0 1 0 0 2.5zM108.5 160.72h19.25a1.25 1.25 0 1 0 0-2.5H108.5a1.25 1.25 0 1 0 0 2.5zM151.821 131.249a1.249 1.249 0 0 0 1.597 1.597l6.362-2.27a17.827 17.827 0 0 0 9.532 2.745c9.883 0 17.922-8.04 17.922-17.922 0-9.882-8.039-17.922-17.922-17.922-9.882 0-17.922 8.04-17.922 17.922 0 3.371.934 6.632 2.706 9.472l-2.275 6.378zm2.07-15.85c0-8.504 6.918-15.422 15.422-15.422 8.503 0 15.422 6.918 15.422 15.422 0 8.503-6.919 15.422-15.423 15.422-3.108 0-6.104-.921-8.665-2.664a1.249 1.249 0 0 0-1.123-.144l-4.463 1.592 1.597-4.475a1.25 1.25 0 0 0-.141-1.12 15.347 15.347 0 0 1-2.627-8.611z"/>
            </g>
            <g fill="#FF921A">
                <path d="M166.084 118.321h1.176v-7.463h-4.806a.528.528 0 0 0-.529.528v6.407c0 .291.237.528.529.528h.917l1.943 3.979a1.038 1.038 0 0 0 1.91-.807l-1.14-3.172zM175.197 107.949l-7.072 2.603v8.075l7.072 2.603a.529.529 0 0 0 .71-.497v-12.289a.528.528 0 0 0-.71-.495zM159.59 113.874v1.426c0 .413.335.748.749.748h.727v-2.923h-.728a.748.748 0 0 0-.748.748zM176.767 112.278v4.623a2.268 2.268 0 0 0 2.268-2.267v-.088a2.268 2.268 0 0 0-2.268-2.268z"/>
            </g>
        </g>
        <path fill="#FFF" d="M87 88.5l.005.2a4 4 0 0 0 3.789 3.795L91 92.5a4 4 0 0 0-4 4l-.005-.2a4 4 0 0 0-3.789-3.795L83 92.5l.2-.005A4 4 0 0 0 87 88.5zM188.5 160.5l.005.2a4 4 0 0 0 3.789 3.795l.206.005a4 4 0 0 0-4 4l-.005-.2a4 4 0 0 0-3.789-3.795l-.206-.005.2-.005a4 4 0 0 0 3.8-3.995zM142.5 94l.005.2a4 4 0 0 0 3.789 3.795l.206.005a4 4 0 0 0-4 4l-.005-.2a4 4 0 0 0-3.789-3.795L138.5 98l.2-.005A4 4 0 0 0 142.5 94zM88 191l.005.2a4 4 0 0 0 3.789 3.795L92 195a4 4 0 0 0-4 4l-.005-.2a4 4 0 0 0-3.789-3.795L84 195l.2-.005A4 4 0 0 0 88 191z"/>
        <path fill="#E4C95C" d="M68 145l.005.2a4 4 0 0 0 3.789 3.795L72 149a4 4 0 0 0-4 4l-.005-.2a4 4 0 0 0-3.789-3.795L64 149l.2-.005A4 4 0 0 0 68 145z"/>
        <path fill="#3978E9" fill-rule="nonzero" d="M105.5 206.098H152c.828 0 1.5-.56 1.5-1.25s-.672-1.25-1.5-1.25h-46.5c-.828 0-1.5.56-1.5 1.25s.672 1.25 1.5 1.25zM119.958 212.598h9.084c.805 0 1.458-.56 1.458-1.25s-.653-1.25-1.458-1.25h-9.084c-.805 0-1.458.56-1.458 1.25s.653 1.25 1.458 1.25zM135 212.598h2.498c.828 0 1.5-.56 1.5-1.25s-.672-1.25-1.5-1.25H135c-.828 0-1.5.56-1.5 1.25s.672 1.25 1.5 1.25z" opacity=".494"/>
    </g>
</svg>
