<svg xmlns="http://www.w3.org/2000/svg" width="24" height="24" viewBox="0 0 24 24">
    <g fill="#528CF4" fill-rule="nonzero">
        <path d="M19 6.001v-2a2.916 2.916 0 0 0-3-3H8a2.916 2.916 0 0 0-3 3v2a4 4 0 0 0-4 4v9a4 4 0 0 0 4 4h14a4 4 0 0 0 4-4v-9a4 4 0 0 0-4-4zm2 13a2 2 0 0 1-2 2H5a2 2 0 0 1-2-2v-9a2 2 0 0 1 2-2h1a1 1 0 0 0 1-1V4.013a.918.918 0 0 1 1-1.012h7.988a.919.919 0 0 1 1.012 1v2h-6a1 1 0 1 0 0 2h8a2 2 0 0 1 2 2v9z"/>
        <path d="M9.044 13.486a2.993 2.993 0 0 0 1.955 3.33V18a1 1 0 0 0 2 0v-1.184a2.993 2.993 0 0 0-1-5.816 2.993 2.993 0 0 0-2.955 2.486zM11.999 15a1 1 0 1 1 0-2 1 1 0 0 1 0 2z"/>
    </g>
</svg>
