<svg xmlns="http://www.w3.org/2000/svg" width="130" height="29" viewBox="0 0 130 29">
    <g fill="none" fill-rule="nonzero">
        <path fill="#377DFF" d="M7.464 8.536l-5.928 5.928a5 5 0 0 0 0 7.072l5.928 5.928a5 5 0 0 0 7.072 0l5.928-5.928a5 5 0 0 0 0-7.072l-5.928-5.928a5 5 0 0 0-7.072 0z"/>
        <path fill="#FFA61A" d="M7.464 1.536L1.536 7.464a5 5 0 0 0 0 7.072l5.928 5.928a5 5 0 0 0 7.072 0l5.928-5.928a5 5 0 0 0 0-7.072l-5.928-5.928a5 5 0 0 0-7.072 0z"/>
        <path fill="#474E5D" d="M45.96 14.08c.9-.1 2.2-.98 2.2-2.82 0-2.2-1.6-3.66-4.06-3.66h-6.94V21h6.96c2.92 0 4.42-1.54 4.42-3.76 0-2.02-1.34-2.98-2.58-3.08v-.08zm-5.5-3.82h3c.84 0 1.5.54 1.5 1.38 0 .9-.64 1.5-1.62 1.5h-2.88v-2.88zm0 8.08V15.4h3.14c.94 0 1.58.56 1.58 1.44 0 .92-.58 1.5-1.64 1.5h-3.08zM57.45 21V7.6h-3.3V21h3.3zm17.27-10.52V7.6H62.76v2.88h4.34V21h3.28V10.48h4.34zM92.05 21l-5.6-13.4h-3.38L77.47 21h3.54l.94-2.44h5.64l.94 2.44h3.52zm-5.56-5.28h-3.42l1.7-4.4 1.72 4.4zm25.93-8.12h-3.22l-4.5 8.5-4.5-8.5h-3.24V21h3.2v-7.18l3.78 7.18h1.52l3.76-7.14V21h3.2V7.6zm6.07 0V21h3.3v-4.1h3.16c3.1 0 5.06-1.86 5.06-4.68 0-2.76-1.9-4.62-4.92-4.62h-6.6zm3.3 6.54v-3.72h2.92c1.28 0 2.06.76 2.06 1.84 0 1.14-.78 1.88-2.06 1.88h-2.92z"/>
    </g>
</svg>
