<svg xmlns="http://www.w3.org/2000/svg" width="26" height="11" viewBox="0 0 26 11">
    <path fill="#474E5D" fill-rule="nonzero" d="M1.695 0L4.95 8.121 8.203 0h1.702v9.953H8.593V6.077l.123-4.183-3.268 8.06H4.443l-3.26-8.04.13 4.163v3.876H0V0h1.695zm14.896 9.953a1.37 1.37 0 0 1-.11-.345 5.973 5.973 0 0 1-.068-.434c-.118.123-.252.24-.4.352a2.763 2.763 0 0 1-1.056.492 2.85 2.85 0 0 1-.65.072c-.378 0-.72-.057-1.028-.171a2.396 2.396 0 0 1-.786-.465 2.048 2.048 0 0 1-.503-.694 2.088 2.088 0 0 1-.178-.858c0-.396.078-.746.233-1.049.155-.303.377-.557.666-.762.29-.205.64-.36 1.05-.465.41-.105.868-.157 1.374-.157h1.258v-.581c0-.442-.133-.794-.397-1.056-.264-.263-.654-.394-1.169-.394-.237 0-.453.032-.65.096-.195.064-.363.15-.502.257a1.195 1.195 0 0 0-.324.372.911.911 0 0 0-.117.444h-1.271c0-.264.07-.526.208-.786.14-.26.336-.493.592-.7.255-.208.564-.376.926-.506.362-.13.767-.195 1.213-.195.401 0 .772.051 1.111.154.34.102.63.257.872.465.241.207.43.466.567.775.137.31.205.673.205 1.087V8.34c0 .25.022.514.065.79.043.275.108.513.195.714v.11h-1.326zm-2.099-.964c.228 0 .442-.032.643-.095a2.4 2.4 0 0 0 .547-.25c.164-.102.306-.22.427-.352.12-.132.215-.269.284-.41V6.364H15.34c-.725 0-1.283.113-1.675.339-.392.225-.588.566-.588 1.022 0 .177.03.344.089.499.06.155.15.288.27.4.12.111.269.2.444.266.176.066.38.1.612.1zm7.63-3.732l1.64-2.7h1.476l-2.42 3.657 2.495 3.74h-1.462l-1.71-2.77-1.708 2.77h-1.47l2.495-3.74-2.42-3.657h1.463l1.62 2.7z"/>
</svg>
