<?xml version="1.0" encoding="iso-8859-1"?>
<!-- Generator: Adobe Illustrator 19.0.0, SVG Export Plug-In . SVG Version: 6.00 Build 0)  -->
<svg version="1.1" id="Capa_1" xmlns="http://www.w3.org/2000/svg" xmlns:xlink="http://www.w3.org/1999/xlink" x="0px" y="0px"
	 viewBox="0 0 512 512" style="enable-background:new 0 0 512 512;" xml:space="preserve">
<path style="fill:#303C42;" d="M341.333,0c-94.104,0-170.667,76.563-170.667,170.667c0,11.208,1.219,22.708,3.625,34.26
	l-19.063,9.531c-3.063,1.531-5.208,4.448-5.76,7.833c-0.552,3.385,0.563,6.823,2.99,9.25l13.792,13.792L155.583,256h-16.917
	c-5.896,0-10.667,4.771-10.667,10.667v16.917l-15.083,15.083H96c-5.896,0-10.667,4.771-10.667,10.667v16.917L70.25,341.333H53.333
	c-5.896,0-10.667,4.771-10.667,10.667v16.917L3.125,408.458c-2,2-3.125,4.708-3.125,7.542v85.333C0,507.229,4.771,512,10.667,512H96
	c2.833,0,5.542-1.125,7.542-3.125L266.667,345.75l13.792,13.792c2.417,2.427,5.865,3.563,9.25,2.99
	c3.385-0.552,6.302-2.698,7.833-5.76l9.531-19.063C415.604,360.333,512,275.979,512,170.667C512,76.563,435.438,0,341.333,0z
	 M394.667,149.333c-17.646,0-32-14.354-32-32s14.354-32,32-32c17.646,0,32,14.354,32,32S412.313,149.333,394.667,149.333z"/>
<path style="fill:#FFCA28;" d="M341.333,21.333C258.99,21.333,192,88.323,192,170.667c0,12.146,1.656,24.719,4.917,37.385
	c1.25,4.865-1.063,9.948-5.563,12.198l-13.344,6.677l10.865,10.865c4.167,4.167,4.167,10.917,0,15.083l-21.333,21.333
	c-2,2-4.708,3.125-7.542,3.125h-10.667V288c0,2.833-1.125,5.542-3.125,7.542l-21.333,21.333c-2,2-4.708,3.125-7.542,3.125h-10.667
	v10.667c0,2.833-1.125,5.542-3.125,7.542l-21.333,21.333c-2,2-4.708,3.125-7.542,3.125H64v10.667c0,2.833-1.125,5.542-3.125,7.542
	l-39.542,39.542v70.25h70.25l167.542-167.542c4.167-4.167,10.917-4.167,15.083,0l10.865,10.865l6.677-13.344
	c2.25-4.5,7.365-6.792,12.198-5.563c98.542,25.375,186.719-49.927,186.719-144.417C490.667,88.323,423.677,21.333,341.333,21.333z
	 M394.667,170.667c-29.406,0-53.333-23.927-53.333-53.333S365.26,64,394.667,64S448,87.927,448,117.333
	S424.073,170.667,394.667,170.667z"/>
<path style="opacity:0.1;enable-background:new    ;" d="M476.928,108.48c2.01,9.753,3.072,19.848,3.072,30.186
	c0,94.49-88.177,169.792-186.719,144.417c-4.833-1.229-9.948,1.063-12.198,5.563l-6.677,13.344l-10.865-10.865
	c-4.167-4.167-10.917-4.167-15.083,0L80.917,458.667H21.333v32h70.25l167.542-167.542c4.167-4.167,10.917-4.167,15.083,0
	l10.865,10.865l6.677-13.344c2.25-4.5,7.365-6.792,12.198-5.563c98.542,25.375,186.719-49.927,186.719-144.417
	C490.667,148.458,485.661,127.443,476.928,108.48z"/>
<linearGradient id="SVGID_1_" gradientUnits="userSpaceOnUse" x1="-42.2516" y1="636.6426" x2="-26.2208" y2="629.1683" gradientTransform="matrix(21.3333 0 0 -21.3333 996.3334 13791.667)">
	<stop  offset="0" style="stop-color:#FFFFFF;stop-opacity:0.2"/>
	<stop  offset="1" style="stop-color:#FFFFFF;stop-opacity:0"/>
</linearGradient>
<path style="fill:url(#SVGID_1_);" d="M341.333,0c-94.104,0-170.667,76.563-170.667,170.667c0,11.208,1.219,22.708,3.625,34.26
	l-19.063,9.531c-3.063,1.531-5.208,4.448-5.76,7.833c-0.552,3.385,0.563,6.823,2.99,9.25l13.792,13.792L155.583,256h-16.917
	c-5.896,0-10.667,4.771-10.667,10.667v16.917l-15.083,15.083H96c-5.896,0-10.667,4.771-10.667,10.667v16.917L70.25,341.333H53.333
	c-5.896,0-10.667,4.771-10.667,10.667v16.917L3.125,408.458c-2,2-3.125,4.708-3.125,7.542v85.333C0,507.229,4.771,512,10.667,512H96
	c2.833,0,5.542-1.125,7.542-3.125L266.667,345.75l13.792,13.792c2.417,2.427,5.865,3.563,9.25,2.99
	c3.385-0.552,6.302-2.698,7.833-5.76l9.531-19.063C415.604,360.333,512,275.979,512,170.667C512,76.563,435.438,0,341.333,0z
	 M394.667,149.333c-17.646,0-32-14.354-32-32s14.354-32,32-32c17.646,0,32,14.354,32,32S412.313,149.333,394.667,149.333z"/>
<g>
</g>
<g>
</g>
<g>
</g>
<g>
</g>
<g>
</g>
<g>
</g>
<g>
</g>
<g>
</g>
<g>
</g>
<g>
</g>
<g>
</g>
<g>
</g>
<g>
</g>
<g>
</g>
<g>
</g>
</svg>
