<svg xmlns="http://www.w3.org/2000/svg" width="144" height="139" viewBox="0 0 144 139">
    <g fill="none" fill-rule="nonzero">
        <path fill="#F6F9FF" d="M81.73 139H42.81C19.168 139 0 119.833 0 96.19V57.27c0-23.643 19.167-42.81 42.81-42.81h38.92c23.643 0 42.81 19.167 42.81 42.81v38.92c0 23.643-19.167 42.81-42.81 42.81z"/>
        <path fill="#EDF3FF" d="M122.595 63.108h-19.46c-11.822 0-21.405-9.583-21.405-21.405v-19.46c0-11.822 9.583-21.405 21.405-21.405h19.46C134.416.838 144 10.42 144 22.243v19.46c0 11.822-9.584 21.405-21.405 21.405z"/>
    </g>
</svg>
