<svg xmlns="http://www.w3.org/2000/svg" width="144" height="139" viewBox="0 0 144 139">
    <g fill="none" fill-rule="nonzero">
        <path fill="#F6F9FF" d="M62.27 0h38.92C124.832 0 144 19.167 144 42.81v38.92c0 23.643-19.167 42.81-42.81 42.81H62.27c-23.643 0-42.81-19.167-42.81-42.81V42.81C19.46 19.168 38.626 0 62.27 0z"/>
        <path fill="#EDF3FF" d="M21.405 75.892h19.46c11.822 0 21.405 9.583 21.405 21.405v19.46c0 11.822-9.583 21.405-21.405 21.405h-19.46C9.584 138.162 0 128.58 0 116.757v-19.46c0-11.822 9.584-21.405 21.405-21.405z"/>
    </g>
</svg>
