<svg xmlns="http://www.w3.org/2000/svg" width="129" height="129" viewBox="0 0 129 129">
    <g fill="none" fill-rule="evenodd">
        <g fill-rule="nonzero">
            <path fill="#002C7C" d="M98.189 30.625h10.37v6.32H98.19zM85.662 106.389v-.555H21.587a4.445 4.445 0 0 1-4.444-4.445v5a4.445 4.445 0 0 0 4.445 4.445h67.036v-.254a4.447 4.447 0 0 1-2.962-4.191z"/>
            <path fill="#FF921A" d="M85.612 40.663H42.247a2.874 2.874 0 0 1 0-5.748h43.365a2.874 2.874 0 0 1 0 5.748z"/>
            <g fill="#3978E9">
                <path d="M29.67 88.897c.691 0 1.25-.56 1.25-1.25V23.612a3.198 3.198 0 0 1 3.195-3.195h58.682a1.25 1.25 0 1 0 0-2.5H34.115a5.701 5.701 0 0 0-5.695 5.694v64.036c0 .69.56 1.25 1.25 1.25zM108.56 38.195c.69 0 1.25-.56 1.25-1.25V23.612a5.701 5.701 0 0 0-5.695-5.695h-1.481a5.701 5.701 0 0 0-5.695 5.695v82.777a3.198 3.198 0 0 1-3.194 3.195 1.25 1.25 0 1 0 0 2.5 5.701 5.701 0 0 0 5.694-5.695V23.612a3.198 3.198 0 0 1 3.195-3.195h1.481a3.198 3.198 0 0 1 3.195 3.194v12.084h-3.729a1.25 1.25 0 1 0 0 2.5h4.978zM89.041 109.401a3.2 3.2 0 0 1-2.129-3.012V93.056c0-.69-.56-1.25-1.25-1.25H17.143c-.69 0-1.25.56-1.25 1.25v13.333a5.701 5.701 0 0 0 5.695 5.695h67.037c.69 0 1.25-.56 1.25-1.25v-.254c0-.53-.335-1.002-.834-1.178zm-67.453.183a3.198 3.198 0 0 1-3.195-3.196V94.305h66.019v12.083a5.69 5.69 0 0 0 .982 3.195H21.587z"/>
                <path d="M40.631 55.215h12.133a1.25 1.25 0 1 0 0-2.5H40.63a1.25 1.25 0 1 0 0 2.5zM40.631 63.033h19.142a1.25 1.25 0 1 0 0-2.5H40.631a1.25 1.25 0 1 0 0 2.5zM84.308 60.533H65.165a1.25 1.25 0 1 0 0 2.5h19.143a1.25 1.25 0 1 0 0-2.5zM50.014 69.602c0-.69-.56-1.25-1.25-1.25h-8.133a1.25 1.25 0 1 0 0 2.5h8.133c.69 0 1.25-.56 1.25-1.25zM82.061 70.852a1.25 1.25 0 1 0 0-2.5h-8.133a1.25 1.25 0 1 0 0 2.5h8.133zM69.785 69.602c0-.69-.559-1.25-1.25-1.25H53.213a1.25 1.25 0 1 0 0 2.5h15.322c.691 0 1.25-.56 1.25-1.25zM40.631 76.171a1.25 1.25 0 1 0 0 2.5h4.067a1.25 1.25 0 1 0 0-2.5H40.63zM50.09 78.671h9.852a1.25 1.25 0 1 0 0-2.5H50.09a1.25 1.25 0 1 0 0 2.5zM65.334 78.671h18.974a1.25 1.25 0 1 0 0-2.5H65.334a1.25 1.25 0 1 0 0 2.5zM112.649 44.91h-8.179c-.69 0-1.25.56-1.25 1.25v35.081c0 .092.011.18.03.267.005.022.014.043.02.066.018.062.038.124.065.183.003.008.004.017.008.024l4.09 8.531a1.25 1.25 0 0 0 2.253 0l4.09-8.53c.004-.008.005-.017.008-.025.027-.059.047-.12.064-.184.007-.022.016-.043.021-.065.019-.086.03-.175.03-.267v-35.08c0-.691-.56-1.25-1.25-1.25zm-6.93 35.081V54.438h5.68v25.553h-5.68zm5.68-32.58v4.528h-5.679V47.41h5.679zm-2.84 39.47l-2.103-4.39h4.207l-2.103 4.39z"/>
            </g>
        </g>
        <path fill="#3978E9" fill-rule="nonzero" d="M41 122.5h46.5c.828 0 1.5-.56 1.5-1.25s-.672-1.25-1.5-1.25H41c-.828 0-1.5.56-1.5 1.25s.672 1.25 1.5 1.25zM55.458 129h9.084c.805 0 1.458-.56 1.458-1.25s-.653-1.25-1.458-1.25h-9.084c-.805 0-1.458.56-1.458 1.25s.653 1.25 1.458 1.25zM70.5 129h2.498c.828 0 1.5-.56 1.5-1.25s-.672-1.25-1.5-1.25H70.5c-.828 0-1.5.56-1.5 1.25s.672 1.25 1.5 1.25z" opacity=".494"/>
        <path fill="#FFF" d="M124.5 30l.005.2a4 4 0 0 0 3.789 3.795l.206.005a4 4 0 0 0-4 4l-.005-.2a4 4 0 0 0-3.789-3.795L120.5 34l.2-.005A4 4 0 0 0 124.5 30zM6.5 92.5l.005.2a4 4 0 0 0 3.789 3.795l.206.005a4 4 0 0 0-4 4l-.005-.2a4 4 0 0 0-3.789-3.795L2.5 96.5l.2-.005A4 4 0 0 0 6.5 92.5zM119.5 98.5l.005.2a4 4 0 0 0 3.789 3.795l.206.005a4 4 0 0 0-4 4l-.005-.2a4 4 0 0 0-3.789-3.795l-.206-.005.2-.005a4 4 0 0 0 3.8-3.995zM4.5 31.5l.005.2a4 4 0 0 0 3.789 3.795l.206.005a4 4 0 0 0-4 4l-.005-.2a4 4 0 0 0-3.789-3.795L.5 35.5l.2-.005A4 4 0 0 0 4.5 31.5z"/>
        <path fill="#E4C95C" d="M85.5 0l.005.2a4 4 0 0 0 3.789 3.795L89.5 4a4 4 0 0 0-4 4l-.005-.2a4 4 0 0 0-3.789-3.795L81.5 4l.2-.005A4 4 0 0 0 85.5 0z"/>
    </g>
</svg>
