<svg xmlns="http://www.w3.org/2000/svg" width="39" height="39" viewBox="0 0 39 39">
    <path fill="#225FCF" fill-rule="nonzero" d="M19.5 0C30.27 0 39 8.73 39 19.5S30.27 39 19.5 39 0 30.27 0 19.5 8.73 0 19.5 0zm0 29a9.46 9.46 0 0 1-5.974-2.113l-5.673 5.674A17.435 17.435 0 0 0 19.5 37c4.473 0 8.553-1.678 11.647-4.439l-5.673-5.674A9.46 9.46 0 0 1 19.5 29zM6.439 7.853A17.435 17.435 0 0 0 2 19.5c0 4.473 1.678 8.553 4.439 11.647l5.673-5.674A9.46 9.46 0 0 1 10 19.5a9.46 9.46 0 0 1 2.113-5.974L6.439 7.853zm26.122 0l-5.673 5.674A9.46 9.46 0 0 1 29 19.5a9.46 9.46 0 0 1-2.113 5.974l5.674 5.673A17.435 17.435 0 0 0 37 19.5c0-4.473-1.678-8.553-4.439-11.647zM19.5 12a7.5 7.5 0 1 0 0 15 7.5 7.5 0 0 0 0-15zm0-10A17.435 17.435 0 0 0 7.853 6.439l5.673 5.674A9.46 9.46 0 0 1 19.5 10a9.46 9.46 0 0 1 5.973 2.112l5.674-5.673A17.435 17.435 0 0 0 19.5 2z"/>
</svg>
