<svg xmlns="http://www.w3.org/2000/svg" width="129" height="129" viewBox="0 0 129 129">
    <g fill="none" fill-rule="evenodd">
        <g fill-rule="nonzero">
            <g fill="#002C7C">
                <path d="M64.355 84.33l-14.373 6.837a4.702 4.702 0 0 1-6.265-2.227l3.032 6.385a4.701 4.701 0 0 0 6.265 2.225l14.376-6.837-3.035-6.382zM109.588 75.427l-3.09-6.347c1.996 4.196-1.362 8.962-5.985 8.494l-6.169-.625c-7.824-.792-11.417-1.442-18.28 1.822L64.36 84.339l3.031 6.374 11.764-5.595c6.862-3.264 10.455-2.615 18.28-1.822l6.169.624c4.623.468 7.981-4.297 5.985-8.493zM45.138 21.111c-7.648 0-13.848 6.2-13.848 13.848 0 7.648 6.2 13.849 13.848 13.849 7.648 0 13.848-6.2 13.848-13.849 0-7.647-6.2-13.848-13.848-13.848zm0 22.576a8.728 8.728 0 1 1 0-17.456 8.728 8.728 0 0 1 0 17.456z"/>
            </g>
            <g fill="#3978E9">
                <path d="M107.117 67.32a9.493 9.493 0 0 0 3.817-4.818 9.508 9.508 0 0 0-.376-7.316c-2.084-4.381-7.087-6.442-11.584-4.986l-3.6-7.57a7.13 7.13 0 0 0-6.017-4.097c-2.633-.186-5.072 1.026-6.522 3.231l-4.225 6.425c-3.68 5.622-5.526 8.444-11.625 11.344l-11.764 5.595-14.376 6.838a5.912 5.912 0 0 0-3.052 3.382 5.914 5.914 0 0 0 .233 4.55l.65 1.365-2.838 1.35a3.107 3.107 0 0 0-1.605 1.779 3.111 3.111 0 0 0 .123 2.393l3.605 7.578c.359.756.99 1.326 1.778 1.606a3.121 3.121 0 0 0 2.393-.123l2.839-1.35.649 1.366a5.912 5.912 0 0 0 3.382 3.05 5.946 5.946 0 0 0 1.997.348c.872 0 1.74-.195 2.552-.58l14.376-6.838 11.764-5.596c6.099-2.901 9.454-2.552 16.138-1.86l7.648.778c2.625.267 5.102-.865 6.622-3.022a7.13 7.13 0 0 0 .617-7.253l-3.599-7.568zm-2.834-14.684a7.023 7.023 0 0 1 4.017 3.625 7.021 7.021 0 0 1 .278 5.404 7.019 7.019 0 0 1-2.543 3.381l-5.98-12.571a7.014 7.014 0 0 1 4.228.16zM43.898 92.239l-2.838 1.349a.626.626 0 0 1-.84-.299l-3.605-7.578a.628.628 0 0 1 .299-.84l2.838-1.35 3.354 7.052.792 1.666zm8.58 4.183a3.43 3.43 0 0 1-2.638.136 3.427 3.427 0 0 1-1.961-1.77l-3.797-7.982-2.61-5.488v-.002l-1.186-2.492a3.455 3.455 0 0 1 1.634-4.6l13.248-6.3 10.557 22.198-13.247 6.3zm55.579-15.72a4.66 4.66 0 0 1-4.327 1.974l-7.641-.776c-6.924-.719-10.738-1.114-17.47 2.088l-10.635 5.059-10.558-22.198 10.635-5.058c6.732-3.201 8.831-6.41 12.643-12.233l4.22-6.42a4.66 4.66 0 0 1 4.262-2.111 4.658 4.658 0 0 1 3.931 2.677l4.098 8.616 7.147 15.027v.001l4.098 8.615a4.658 4.658 0 0 1-.403 4.739z"/>
                <path d="M70.722 93.605a1.25 1.25 0 0 0-2.085 1.376l6.024 9.13a3.423 3.423 0 0 1-1.388 4.979 3.44 3.44 0 0 1-4.329-1.206l-3.427-5.192a1.249 1.249 0 0 0-.728-.522l-3.702-.961-1.608-2.385a1.25 1.25 0 0 0-2.072 1.399l1.872 2.776c.17.252.427.434.722.51l3.695.96 3.162 4.791a5.95 5.95 0 0 0 7.489 2.087 5.922 5.922 0 0 0 2.4-8.614l-6.025-9.129zM38.926 59.127a3.63 3.63 0 0 0 3.514 2.72h5.397a3.63 3.63 0 0 0 3.513-2.72l1.461-5.643 5.023 2.957a3.63 3.63 0 0 0 4.409-.561l3.815-3.816a3.63 3.63 0 0 0 .561-4.408l-2.957-5.023 5.643-1.461a3.63 3.63 0 0 0 2.72-3.514v-5.397c0-1.655-1.118-3.1-2.72-3.514l-5.643-1.461 2.957-5.023a3.629 3.629 0 0 0-.561-4.408l-3.816-3.816a3.629 3.629 0 0 0-4.408-.562l-5.023 2.958-1.461-5.644a3.63 3.63 0 0 0-3.514-2.719h-5.397a3.63 3.63 0 0 0-3.514 2.72l-1.46 5.643-5.024-2.958a3.629 3.629 0 0 0-4.407.562l-3.816 3.816a3.63 3.63 0 0 0-.562 4.408l2.958 5.023-5.643 1.461a3.63 3.63 0 0 0-2.721 3.514v5.396c0 1.656 1.119 3.1 2.72 3.514l5.644 1.462-2.958 5.023a3.629 3.629 0 0 0 .562 4.407l3.815 3.816a3.63 3.63 0 0 0 4.408.562l5.024-2.957 1.461 5.643zm-7.752-4.84a1.13 1.13 0 0 1-1.373-.175l-3.816-3.817a1.129 1.129 0 0 1-.174-1.371l3.703-6.29c.016-.028.033-.054.052-.08a1.25 1.25 0 0 0-.81-1.954 1.457 1.457 0 0 1-.094-.02l-7.065-1.828a1.13 1.13 0 0 1-.846-1.095v-5.396c0-.515.348-.965.846-1.094l7.066-1.83c.032-.008.063-.014.094-.019a1.25 1.25 0 0 0 .809-1.954 1.27 1.27 0 0 1-.053-.081l-3.702-6.289a1.13 1.13 0 0 1 .175-1.372l3.816-3.816a1.13 1.13 0 0 1 1.372-.175l6.29 3.704c.028.016.055.034.08.051a1.25 1.25 0 0 0 1.953-.805 1.49 1.49 0 0 1 .02-.098l1.829-7.065a1.13 1.13 0 0 1 1.094-.847h5.397c.514 0 .964.348 1.093.847l1.829 7.063c.008.033.016.067.022.1a1.25 1.25 0 0 0 1.95.807c.026-.018.053-.036.084-.054l6.288-3.703a1.13 1.13 0 0 1 1.372.175l3.816 3.816c.364.365.436.929.175 1.372l-3.703 6.29a1.108 1.108 0 0 1-.052.08 1.25 1.25 0 0 0 .809 1.954c.031.005.062.011.095.02l7.064 1.829c.499.129.847.578.847 1.094v5.396c0 .516-.348.966-.847 1.095l-7.066 1.829a1.243 1.243 0 0 1-.093.02 1.25 1.25 0 0 0-.809 1.953c.018.026.035.052.052.081l3.702 6.288a1.13 1.13 0 0 1-.174 1.373l-3.816 3.816a1.13 1.13 0 0 1-1.372.175l-6.285-3.7a1.342 1.342 0 0 1-.088-.057 1.25 1.25 0 0 0-1.95.807 1.49 1.49 0 0 1-.021.098l-1.829 7.066a1.13 1.13 0 0 1-1.094.846H42.44a1.13 1.13 0 0 1-1.095-.846l-1.828-7.063a1.505 1.505 0 0 1-.022-.101 1.25 1.25 0 0 0-1.952-.805 1.391 1.391 0 0 1-.082.053l-6.288 3.702z"/>
                <path d="M45.138 44.938c5.502 0 9.978-4.477 9.978-9.979 0-5.501-4.477-9.977-9.978-9.977-5.501 0-9.978 4.476-9.978 9.977 0 5.502 4.476 9.978 9.978 9.978zm0-17.456c4.124 0 7.478 3.355 7.478 7.477 0 4.124-3.355 7.478-7.478 7.478-4.123 0-7.478-3.354-7.478-7.477s3.355-7.478 7.478-7.478z"/>
            </g>
            <path fill="#FF921A" d="M97.478 20.113l-3.423-.886a1.289 1.289 0 0 0-.095-.021c.019-.026.036-.053.053-.081l1.794-3.048a1.153 1.153 0 0 0-.178-1.4l-1.85-1.85a1.154 1.154 0 0 0-1.4-.178l-3.047 1.794a1.037 1.037 0 0 0-.082.053 1.074 1.074 0 0 0-.02-.095l-.887-3.423a1.154 1.154 0 0 0-1.117-.864h-2.614c-.526 0-.985.355-1.117.864l-.886 3.423a1.074 1.074 0 0 0-.02.095 1.342 1.342 0 0 0-.082-.053l-3.048-1.794a1.153 1.153 0 0 0-1.4.179l-1.849 1.849a1.154 1.154 0 0 0-.178 1.4l1.794 3.048c.016.028.034.055.053.081a1.289 1.289 0 0 0-.096.02l-3.423.887a1.153 1.153 0 0 0-.864 1.116v2.615c0 .526.356.985.864 1.117l3.424.886c.032.008.063.015.095.02a1.355 1.355 0 0 0-.054.082l-1.793 3.047a1.153 1.153 0 0 0 .178 1.4l1.849 1.85c.372.371.948.445 1.4.178l3.048-1.794c.028-.016.055-.034.081-.053.006.032.013.064.021.095l.886 3.424c.131.509.591.864 1.117.864h2.615c.525 0 .984-.356 1.116-.864l.886-3.424c.008-.031.016-.063.021-.095.026.019.053.036.082.053l3.047 1.794a1.154 1.154 0 0 0 1.4-.178l1.85-1.85c.371-.371.444-.947.178-1.4l-1.794-3.047a1.15 1.15 0 0 0-.053-.082c.032-.005.064-.012.095-.02l3.423-.886c.51-.132.865-.591.865-1.117v-2.615c0-.526-.356-.985-.865-1.116zM85.92 26.765a4.23 4.23 0 1 1 0-8.458 4.23 4.23 0 0 1 0 8.458z"/>
        </g>
        <path fill="#3978E9" fill-rule="nonzero" d="M41 122.5h46.5c.828 0 1.5-.56 1.5-1.25s-.672-1.25-1.5-1.25H41c-.828 0-1.5.56-1.5 1.25s.672 1.25 1.5 1.25zM55.458 129h9.084c.805 0 1.458-.56 1.458-1.25s-.653-1.25-1.458-1.25h-9.084c-.805 0-1.458.56-1.458 1.25s.653 1.25 1.458 1.25zM70.5 129h2.498c.828 0 1.5-.56 1.5-1.25s-.672-1.25-1.5-1.25H70.5c-.828 0-1.5.56-1.5 1.25s.672 1.25 1.5 1.25z" opacity=".494"/>
        <path fill="#FFF" d="M124.5 30l.005.2a4 4 0 0 0 3.789 3.795l.206.005a4 4 0 0 0-4 4l-.005-.2a4 4 0 0 0-3.789-3.795L120.5 34l.2-.005A4 4 0 0 0 124.5 30zM18 92.5l.005.2a4 4 0 0 0 3.789 3.795L22 96.5a4 4 0 0 0-4 4l-.005-.2a4 4 0 0 0-3.789-3.795L14 96.5l.2-.005A4 4 0 0 0 18 92.5zM119.5 98.5l.005.2a4 4 0 0 0 3.789 3.795l.206.005a4 4 0 0 0-4 4l-.005-.2a4 4 0 0 0-3.789-3.795l-.206-.005.2-.005a4 4 0 0 0 3.8-3.995zM4.5 31.5l.005.2a4 4 0 0 0 3.789 3.795l.206.005a4 4 0 0 0-4 4l-.005-.2a4 4 0 0 0-3.789-3.795L.5 35.5l.2-.005A4 4 0 0 0 4.5 31.5z"/>
        <path fill="#E4C95C" d="M69 0l.005.2a4 4 0 0 0 3.789 3.795L73 4a4 4 0 0 0-4 4l-.005-.2a4 4 0 0 0-3.789-3.795L65 4l.2-.005A4 4 0 0 0 69 0z"/>
    </g>
</svg>
