<svg xmlns="http://www.w3.org/2000/svg" width="129" height="125" viewBox="0 0 129 125">
    <g fill="none" fill-rule="evenodd">
        <g transform="translate(18.5 17.5)">
            <path fill="#002C7C" fill-rule="nonzero" d="M16.462 15.088v55.657c0 4.634-3.218 8.508-7.538 9.533.729.173 1.486.274 2.269.274h3.596c5.416 0 9.807-4.39 9.807-9.807V15.087h-8.134z"/>
            <g fill="#3978E9" fill-rule="nonzero">
                <path d="M91.615.198H24.596c-.69 0-1.25.559-1.25 1.25v12.39H1.384c-.69 0-1.25.56-1.25 1.25v55.657c0 6.097 4.961 11.058 11.059 11.058h70.615c6.097 0 11.057-4.96 11.057-11.058V1.448c0-.691-.559-1.25-1.25-1.25zM2.635 70.744V16.339h20.712v54.407c0 4.719-3.84 8.558-8.559 8.558h-3.595c-4.72 0-8.558-3.84-8.558-8.558zm87.73 0c0 4.72-3.839 8.558-8.557 8.558H21.783l.015-.013c.148-.12.292-.245.432-.373.026-.022.05-.047.075-.07.113-.106.226-.213.335-.324.046-.046.09-.095.136-.142.085-.09.17-.18.253-.272a12.576 12.576 0 0 0 .512-.618 10.843 10.843 0 0 0 .532-.752l.122-.19c.065-.104.127-.211.189-.318l.1-.175c.075-.137.146-.275.215-.414.016-.032.034-.063.049-.096.083-.171.162-.347.236-.523.022-.051.04-.103.061-.154.051-.127.102-.255.149-.384l.07-.206c.039-.116.077-.231.113-.348l.064-.226a10.97 10.97 0 0 0 .213-.921 12.227 12.227 0 0 0 .095-.6c.01-.077.021-.153.03-.23.014-.135.024-.27.035-.404.004-.066.011-.13.014-.196.012-.201.018-.404.018-.608V2.698h64.52v68.046z"/>
                <path d="M32.084 9.967h18.541a1.25 1.25 0 1 0 0-2.5H32.084a1.25 1.25 0 1 0 0 2.5zM32.084 46.718h52.541c.69 0 1.25-.56 1.25-1.25V16.05c0-.69-.56-1.25-1.25-1.25H32.084c-.691 0-1.25.56-1.25 1.25v29.418c0 .69.559 1.25 1.25 1.25zm1.25-29.418h50.041v26.918H33.334V17.3zM32.084 52.8H45.75a1.25 1.25 0 1 0 0-2.5H32.084a1.25 1.25 0 1 0 0 2.5zM65.188 50.3H51.52a1.25 1.25 0 1 0 0 2.5h13.666a1.25 1.25 0 1 0 0-2.5zM84.625 50.3H70.959a1.25 1.25 0 1 0 0 2.5h13.666a1.25 1.25 0 1 0 0-2.5zM32.084 64.968H45.75a1.25 1.25 0 1 0 0-2.5H32.084a1.25 1.25 0 1 0 0 2.5zM65.188 62.468H51.52a1.25 1.25 0 1 0 0 2.5h13.666a1.25 1.25 0 1 0 0-2.5zM84.625 62.468H70.959a1.25 1.25 0 1 0 0 2.5h13.666a1.25 1.25 0 1 0 0-2.5zM32.084 71.05H45.75a1.25 1.25 0 1 0 0-2.5H32.084a1.25 1.25 0 1 0 0 2.5zM65.188 68.55H51.52a1.25 1.25 0 1 0 0 2.5h13.666a1.25 1.25 0 1 0 0-2.5zM84.625 68.55H70.959a1.25 1.25 0 1 0 0 2.5h13.666a1.25 1.25 0 1 0 0-2.5zM75.947 9.967h8.678a1.25 1.25 0 1 0 0-2.5h-8.678a1.25 1.25 0 1 0 0 2.5z"/>
            </g>
            <rect width="36.5" height="12.5" x="40" y="24" fill="#FF921A" rx="4"/>
        </g>
        <path fill="#3978E9" fill-rule="nonzero" d="M41 118.5h46.5c.828 0 1.5-.56 1.5-1.25s-.672-1.25-1.5-1.25H41c-.828 0-1.5.56-1.5 1.25s.672 1.25 1.5 1.25zM55.458 125h9.084c.805 0 1.458-.56 1.458-1.25s-.653-1.25-1.458-1.25h-9.084c-.805 0-1.458.56-1.458 1.25s.653 1.25 1.458 1.25zM70.5 125h2.498c.828 0 1.5-.56 1.5-1.25s-.672-1.25-1.5-1.25H70.5c-.828 0-1.5.56-1.5 1.25s.672 1.25 1.5 1.25z" opacity=".494"/>
        <path fill="#FFF" d="M124.5 26l.005.2a4 4 0 0 0 3.789 3.795l.206.005a4 4 0 0 0-4 4l-.005-.2a4 4 0 0 0-3.789-3.795L120.5 30l.2-.005A4 4 0 0 0 124.5 26zM13 101l.005.2a4 4 0 0 0 3.789 3.795L17 105a4 4 0 0 0-4 4l-.005-.2a4 4 0 0 0-3.789-3.795L9 105l.2-.005A4 4 0 0 0 13 101zM119.5 94.5l.005.2a4 4 0 0 0 3.789 3.795l.206.005a4 4 0 0 0-4 4l-.005-.2a4 4 0 0 0-3.789-3.795l-.206-.005.2-.005a4 4 0 0 0 3.8-3.995zM4.5 27.5l.005.2a4 4 0 0 0 3.789 3.795l.206.005a4 4 0 0 0-4 4l-.005-.2a4 4 0 0 0-3.789-3.795L.5 31.5l.2-.005A4 4 0 0 0 4.5 27.5z"/>
        <path fill="#E4C95C" d="M85.5.5l.005.2a4 4 0 0 0 3.789 3.795l.206.005a4 4 0 0 0-4 4l-.005-.2a4 4 0 0 0-3.789-3.795L81.5 4.5l.2-.005A4 4 0 0 0 85.5.5z"/>
    </g>
</svg>
