<svg xmlns="http://www.w3.org/2000/svg" width="16" height="16" viewBox="0 0 16 16">
    <path fill="#474E5D" fill-rule="nonzero" d="M10.69 1.003V1h.75l.275.059c.183.038.349.089.498.15.149.063.293.135.433.218.14.083.266.168.38.254.112.085.213.175.302.27.089.096.227.121.414.075.188-.047.39-.112.606-.195.216-.083.43-.176.642-.28.212-.103.34-.169.387-.197l.072-.046.003-.005.014-.008.015-.008.014-.007.014-.008.003-.005.005-.003.004-.003.003-.005.014-.004.015-.003-.003.023-.004.023-.008.024-.007.023-.007.015-.007.016-.008.023a.575.575 0 0 0-.014.062c-.005.026-.05.13-.137.311a3.94 3.94 0 0 1-.325.552c-.13.186-.246.327-.349.422a3.426 3.426 0 0 0-.206.202.632.632 0 0 1-.123.11l-.072.05-.014.008-.015.008-.003.005-.004.003-.004.003-.003.005-.015.007-.014.008-.003.005-.004.003-.005.003-.002.005-.003.004-.005.003-.004.003-.003.005h.072l.404-.093c.27-.062.527-.137.772-.225l.39-.14.043-.016.022-.008.014-.007.014-.008.015-.008.014-.008.03-.004.028-.003v.03l-.007.004-.007.004-.003.005-.005.003-.004.003-.003.005-.003.005-.004.003-.004.003-.003.005-.003.004-.004.003-.008.016-.007.015-.004.003a68.22 68.22 0 0 1-.183.265c-.12.174-.186.262-.195.264-.01.003-.023.018-.04.046a4.34 4.34 0 0 1-.307.347 7.486 7.486 0 0 1-.55.54.756.756 0 0 0-.275.583c-.003.23-.014.49-.033.78-.02.29-.055.604-.108.94a11.944 11.944 0 0 1-.65 2.386 10.01 10.01 0 0 1-.497 1.087 10.464 10.464 0 0 1-.916 1.445c-.15.197-.338.419-.566.665l-.375.404a9.73 9.73 0 0 1-.283.255c-.165.148-.343.296-.534.445a6.15 6.15 0 0 1-.522.368c-.158.098-.35.21-.574.337a6.606 6.606 0 0 1-.724.354c-.26.109-.534.21-.823.303a7.067 7.067 0 0 1-.836.218c-.27.052-.575.096-.917.132l-.512.054V15h-.938v-.008l-.122-.008a6.115 6.115 0 0 1-.202-.015 22.455 22.455 0 0 1-.599-.086 8.084 8.084 0 0 1-.815-.155c-.197-.052-.49-.15-.88-.295a8.228 8.228 0 0 1-1-.44 38.89 38.89 0 0 1-.52-.28 3.625 3.625 0 0 1-.233-.143l-.13-.085-.003-.005-.004-.003-.004-.003-.003-.005-.015-.007-.014-.008-.003-.005-.004-.003-.005-.003-.003-.005-.002-.004-.005-.003H0V13.4l.014.003.015.004.065.008c.043.005.16.013.353.023a6.045 6.045 0 0 0 2.078-.256c.308-.088.59-.193.848-.314.257-.122.44-.213.548-.273.108-.06.273-.17.494-.33l.332-.24.003-.005.004-.003.004-.003.003-.005.003-.005.004-.003.005-.003.002-.005.015-.004.014-.003.003-.016.005-.016.004-.003.003-.004-.116-.008-.223-.016a2.03 2.03 0 0 1-.34-.07 3.1 3.1 0 0 1-.497-.186 3.751 3.751 0 0 1-.884-.58 6.609 6.609 0 0 1-.289-.317 3.126 3.126 0 0 1-.306-.424 3.917 3.917 0 0 1-.248-.502l-.12-.282-.007-.024-.007-.023-.005-.016-.002-.015.021.003.022.005.159.023c.105.016.271.02.497.016.226-.006.383-.016.47-.032.086-.015.139-.025.158-.03l.029-.008.036-.008.036-.008.003-.005.004-.003.004-.003.003-.004-.029-.008-.028-.008-.03-.008-.028-.008-.029-.007a2.506 2.506 0 0 1-.101-.031 5.31 5.31 0 0 1-.39-.171 2.914 2.914 0 0 1-.504-.288 3.543 3.543 0 0 1-.358-.306 4.29 4.29 0 0 1-.371-.432 3.15 3.15 0 0 1-.36-.614 3.914 3.914 0 0 1-.239-.668 3.86 3.86 0 0 1-.104-.645L.62 5.91l.015.003.014.005.015.008.014.007.015.008.014.008.224.109c.149.072.334.134.555.186a6 6 0 0 0 .397.086l.065.007h.13l-.003-.004-.005-.003-.004-.003-.003-.005-.003-.005-.004-.003-.004-.003-.003-.005-.015-.007-.014-.008-.003-.005-.004-.003-.005-.003-.003-.005-.014-.008-.014-.007-.003-.005a1.959 1.959 0 0 1-.372-.353 8.995 8.995 0 0 1-.26-.326 2.538 2.538 0 0 1-.231-.365 4.591 4.591 0 0 1-.214-.494 3.712 3.712 0 0 1-.233-1.2c-.005-.197 0-.365.014-.505A3.883 3.883 0 0 1 .952 1.98l.123-.295.007-.024.007-.023.005-.003.002-.005.003-.004.005-.003.004.003.003.004.003.005.004.003.004.003.003.005.003.005.005.003.007.015.007.016.004.003.003.004.195.234c.13.155.284.328.462.52.178.192.276.291.295.298.02.009.044.032.073.072.028.038.125.13.288.275.164.145.378.313.642.505.265.192.558.38.88.567a8.3 8.3 0 0 0 1.039.505c.37.15.63.249.779.295.15.047.404.106.765.179.36.072.632.12.815.14.183.02.308.032.375.036l.1.003-.002-.024-.004-.023-.03-.194c-.018-.13-.028-.311-.028-.544 0-.233.017-.448.05-.645.034-.197.085-.396.152-.598.067-.202.133-.364.198-.486a4.83 4.83 0 0 1 .256-.415 3.273 3.273 0 0 1 .989-.925c.216-.13.416-.228.598-.295.183-.067.337-.111.462-.132.125-.02.188-.033.188-.036z"/>
</svg>
