<svg xmlns="http://www.w3.org/2000/svg" width="26" height="26" viewBox="0 0 26 26">
    <path fill="#377DFF" fill-rule="nonzero" d="M22.192 3.808A12.915 12.915 0 0 0 13 0a12.915 12.915 0 0 0-9.192 3.808A12.915 12.915 0 0 0 0 13c0 3.472 1.352 6.737 3.808 9.192A12.915 12.915 0 0 0 13 26c3.472 0 6.737-1.352 9.192-3.808A12.915 12.915 0 0 0 26 13c0-3.472-1.352-6.737-3.808-9.192zm-8.376 14.849h-.054v1.686a.762.762 0 1 1-1.524 0v-1.686h-1.686a.762.762 0 0 1 0-1.523h3.264c.93 0 1.686-.757 1.686-1.686 0-.93-.756-1.686-1.686-1.686h-1.632c-1.77 0-3.21-1.44-3.21-3.21s1.44-3.209 3.21-3.209h.054V5.657a.762.762 0 0 1 1.524 0v1.686h1.686a.762.762 0 0 1 0 1.523h-3.264c-.93 0-1.686.757-1.686 1.686 0 .93.756 1.686 1.686 1.686h1.632c1.77 0 3.21 1.44 3.21 3.21s-1.44 3.209-3.21 3.209z"/>
</svg>
