<svg xmlns="http://www.w3.org/2000/svg" width="26" height="12" viewBox="0 0 26 12">
    <path fill="#474E5D" fill-rule="nonzero" d="M2.256 1.047v6.74c0 .387.056.724.167 1.008.112.285.268.522.469.711.2.19.44.33.72.42.281.092.592.137.934.137.346 0 .66-.045.943-.136a1.88 1.88 0 0 0 .725-.42c.2-.19.355-.427.465-.712.11-.284.164-.62.164-1.008v-6.74h1.32v6.74c0 .56-.099 1.05-.295 1.47a3.01 3.01 0 0 1-.79 1.046c-.33.278-.714.486-1.151.625a4.533 4.533 0 0 1-1.381.209c-.506 0-.978-.07-1.415-.209a3.195 3.195 0 0 1-1.138-.625 2.91 2.91 0 0 1-.76-1.046c-.184-.42-.276-.91-.276-1.47v-6.74h1.299zM13.323.91c.56 0 1.06.084 1.497.253.438.169.806.392 1.104.67a2.857 2.857 0 0 1 .913 2.092h-1.32c0-.278-.044-.536-.133-.773a1.624 1.624 0 0 0-.406-.615 1.876 1.876 0 0 0-.684-.403 2.944 2.944 0 0 0-.97-.144c-.352 0-.657.041-.917.123-.26.082-.474.195-.642.339a1.344 1.344 0 0 0-.376.509c-.082.196-.123.41-.123.643 0 .21.044.4.133.574.089.173.227.332.414.478.186.146.427.28.72.404.236.098.508.194.818.286l.239.069a9.48 9.48 0 0 1 1.463.53c.41.194.748.413 1.015.66.266.246.465.521.595.827.13.305.194.651.194 1.039 0 .405-.082.772-.246 1.1a2.407 2.407 0 0 1-.7.841 3.314 3.314 0 0 1-1.094.537 5.043 5.043 0 0 1-1.425.188c-.306 0-.611-.029-.916-.086a4.535 4.535 0 0 1-.879-.256 3.89 3.89 0 0 1-.78-.424 3.011 3.011 0 0 1-.625-.588 2.631 2.631 0 0 1-.417-.752c-.1-.278-.15-.583-.15-.916h1.32c0 .342.067.635.201.879.134.243.314.445.54.605.226.16.485.276.78.352.293.075.602.112.926.112.692 0 1.223-.14 1.592-.423.37-.283.554-.668.554-1.156 0-.232-.035-.437-.106-.615a1.226 1.226 0 0 0-.376-.489 2.995 2.995 0 0 0-.728-.417 9.488 9.488 0 0 0-.89-.318l-.272-.082a9.872 9.872 0 0 1-1.336-.481 4.39 4.39 0 0 1-1.019-.623 2.509 2.509 0 0 1-.646-.803c-.15-.3-.226-.645-.226-1.032s.081-.746.243-1.077c.162-.33.39-.617.687-.861a3.269 3.269 0 0 1 1.067-.57A4.416 4.416 0 0 1 13.323.91zm8.026.137c.656 0 1.253.11 1.79.328.538.219 1 .53 1.385.937.385.405.684.897.895 1.476.212.579.318 1.228.318 1.948v.588c0 .72-.106 1.37-.318 1.948a4.133 4.133 0 0 1-.902 1.474 3.92 3.92 0 0 1-1.418.93c-.556.216-1.178.324-1.867.324H18.54V1.047h2.81zm0 1.08h-1.497v7.8h1.38c.53 0 .994-.086 1.395-.257.401-.17.736-.413 1.005-.728.269-.314.47-.692.605-1.134.134-.442.201-.937.201-1.484v-.608c0-.57-.068-1.077-.205-1.521a3.108 3.108 0 0 0-.601-1.128 2.557 2.557 0 0 0-.97-.7c-.384-.16-.821-.24-1.313-.24z" opacity=".5"/>
</svg>
